M48
; DRILL file {KiCad (6.0.5-0)} date Monday, June 27, 2022 at 06:57:56 AM
; FORMAT={-:-/ absolute / inch / decimal}
; #@! TF.CreationDate,2022-06-27T06:57:56-05:00
; #@! TF.GenerationSoftware,Kicad,Pcbnew,(6.0.5-0)
; #@! TF.FileFunction,Plated,1,2,PTH
FMAT,2
INCH
; #@! TA.AperFunction,Plated,PTH,ComponentDrill
T1C0.0276
; #@! TA.AperFunction,Plated,PTH,ComponentDrill
T2C0.0295
; #@! TA.AperFunction,Plated,PTH,ComponentDrill
T3C0.0394
; #@! TA.AperFunction,Plated,PTH,ComponentDrill
T4C0.0520
; #@! TA.AperFunction,Plated,PTH,ComponentDrill
T5C0.0787
%
G90
G05
T1
X7.7Y-3.9
X7.7Y-4.1
X7.9Y-3.9
X7.9Y-4.1
T2
X7.8Y-4.45
X7.8Y-4.5287
T3
X5.45Y-2.3701
X5.55Y-2.3701
X5.55Y-4.0701
X5.65Y-2.3701
X5.65Y-4.0701
X5.75Y-2.3701
X5.75Y-4.0701
X5.8Y-2.05
X5.85Y-2.3701
X5.85Y-4.0701
X5.9Y-2.05
X5.95Y-2.3701
X5.95Y-4.0701
X6.0Y-2.05
X6.05Y-2.3701
X6.05Y-4.0701
X6.1Y-2.05
X6.15Y-2.3701
X6.15Y-4.0701
X6.25Y-2.3701
X6.25Y-4.0701
X6.35Y-2.3701
X6.45Y-2.3701
X7.8Y-2.4
X7.8Y-2.5
X7.8Y-2.6
X7.8Y-2.7
X7.8Y-3.1
X7.8Y-3.2
T4
X5.8411Y-4.55
X6.038Y-4.55
T5
X7.05Y-2.0
X7.05Y-4.8346
T0
M30
