%TF.GenerationSoftware,KiCad,Pcbnew,(6.0.5-0)*%
%TF.CreationDate,2022-06-27T06:58:03-05:00*%
%TF.ProjectId,Hydra Base,48796472-6120-4426-9173-652e6b696361,rev?*%
%TF.SameCoordinates,Original*%
%TF.FileFunction,Copper,L2,Bot*%
%TF.FilePolarity,Positive*%
%FSLAX46Y46*%
G04 Gerber Fmt 4.6, Leading zero omitted, Abs format (unit mm)*
G04 Created by KiCad (PCBNEW (6.0.5-0)) date 2022-06-27 06:58:03*
%MOMM*%
%LPD*%
G01*
G04 APERTURE LIST*
G04 Aperture macros list*
%AMRoundRect*
0 Rectangle with rounded corners*
0 $1 Rounding radius*
0 $2 $3 $4 $5 $6 $7 $8 $9 X,Y pos of 4 corners*
0 Add a 4 corners polygon primitive as box body*
4,1,4,$2,$3,$4,$5,$6,$7,$8,$9,$2,$3,0*
0 Add four circle primitives for the rounded corners*
1,1,$1+$1,$2,$3*
1,1,$1+$1,$4,$5*
1,1,$1+$1,$6,$7*
1,1,$1+$1,$8,$9*
0 Add four rect primitives between the rounded corners*
20,1,$1+$1,$2,$3,$4,$5,0*
20,1,$1+$1,$4,$5,$6,$7,0*
20,1,$1+$1,$6,$7,$8,$9,0*
20,1,$1+$1,$8,$9,$2,$3,0*%
G04 Aperture macros list end*
%TA.AperFunction,ComponentPad*%
%ADD10C,1.400000*%
%TD*%
%TA.AperFunction,ComponentPad*%
%ADD11O,1.400000X1.400000*%
%TD*%
%TA.AperFunction,ComponentPad*%
%ADD12RoundRect,0.250000X-0.625000X0.350000X-0.625000X-0.350000X0.625000X-0.350000X0.625000X0.350000X0*%
%TD*%
%TA.AperFunction,ComponentPad*%
%ADD13O,1.750000X1.200000*%
%TD*%
%TA.AperFunction,ComponentPad*%
%ADD14R,3.500000X3.500000*%
%TD*%
%TA.AperFunction,ComponentPad*%
%ADD15C,3.500000*%
%TD*%
%TA.AperFunction,ComponentPad*%
%ADD16R,1.700000X1.700000*%
%TD*%
%TA.AperFunction,ComponentPad*%
%ADD17O,1.700000X1.700000*%
%TD*%
%TA.AperFunction,ComponentPad*%
%ADD18R,1.980000X3.960000*%
%TD*%
%TA.AperFunction,ComponentPad*%
%ADD19O,1.980000X3.960000*%
%TD*%
%TA.AperFunction,Conductor*%
%ADD20C,0.250000*%
%TD*%
G04 APERTURE END LIST*
D10*
%TO.P,R2,1*%
%TO.N,Net-(U1-Pad4)*%
X200660000Y-99060000D03*
D11*
%TO.P,R2,2*%
%TO.N,GND*%
X195580000Y-99060000D03*
%TD*%
D10*
%TO.P,R1,1*%
%TO.N,Net-(BT1-Pad1)*%
X195580000Y-104140000D03*
D11*
%TO.P,R1,2*%
%TO.N,Net-(U1-Pad4)*%
X200660000Y-104140000D03*
%TD*%
D12*
%TO.P,J4,1,Pin_1*%
%TO.N,Net-(BT1-Pad1)*%
X198120000Y-113030000D03*
D13*
%TO.P,J4,2,Pin_2*%
%TO.N,GND*%
X198120000Y-115030000D03*
%TD*%
D14*
%TO.P,BT1,1,+*%
%TO.N,Net-(BT1-Pad1)*%
X179070000Y-50800000D03*
D15*
%TO.P,BT1,2,-*%
%TO.N,GND*%
X179070000Y-122800000D03*
%TD*%
D16*
%TO.P,U1,1,+3.3V*%
%TO.N,Net-(J1-Pad1)*%
X138430000Y-60200000D03*
D17*
%TO.P,U1,2,IO_26*%
%TO.N,unconnected-(U1-Pad2)*%
X140970000Y-60200000D03*
%TO.P,U1,3,USR_BTN*%
%TO.N,Net-(J3-Pad1)*%
X143510000Y-60200000D03*
%TO.P,U1,4,VBATT*%
%TO.N,Net-(U1-Pad4)*%
X146050000Y-60200000D03*
%TO.P,U1,5,5V_CTRL*%
%TO.N,unconnected-(U1-Pad5)*%
X148590000Y-60200000D03*
%TO.P,U1,6,SCL*%
%TO.N,Net-(U1-Pad6)*%
X151130000Y-60200000D03*
%TO.P,U1,7,SDA*%
%TO.N,Net-(U1-Pad7)*%
X153670000Y-60200000D03*
%TO.P,U1,8,GPS_PWR*%
%TO.N,Net-(U1-Pad8)*%
X156210000Y-60200000D03*
%TO.P,U1,9,GPS_RX*%
%TO.N,Net-(U1-Pad9)*%
X158750000Y-60200000D03*
%TO.P,U1,10,GPS_TX*%
%TO.N,Net-(U1-Pad10)*%
X161290000Y-60200000D03*
%TO.P,U1,11,GND*%
%TO.N,GND*%
X163830000Y-60200000D03*
D16*
%TO.P,U1,12,DTR*%
%TO.N,unconnected-(U1-Pad12)*%
X140970000Y-103380000D03*
D17*
%TO.P,U1,13,RTS*%
%TO.N,unconnected-(U1-Pad13)*%
X143510000Y-103380000D03*
%TO.P,U1,14,+5V*%
%TO.N,+5V*%
X146050000Y-103380000D03*
%TO.P,U1,15,ESP32_RX*%
%TO.N,unconnected-(U1-Pad15)*%
X148590000Y-103380000D03*
%TO.P,U1,16,ESP32_TX*%
%TO.N,unconnected-(U1-Pad16)*%
X151130000Y-103380000D03*
%TO.P,U1,17,GND*%
%TO.N,GND*%
X153670000Y-103380000D03*
%TO.P,U1,18,EN*%
%TO.N,unconnected-(U1-Pad18)*%
X156210000Y-103380000D03*
%TO.P,U1,19,IO_0*%
%TO.N,unconnected-(U1-Pad19)*%
X158750000Y-103380000D03*
%TD*%
D16*
%TO.P,J5,1,Pin_1*%
%TO.N,Net-(U1-Pad8)*%
X198120000Y-60960000D03*
D17*
%TO.P,J5,2,Pin_2*%
%TO.N,GND*%
X198120000Y-63500000D03*
%TO.P,J5,3,Pin_3*%
%TO.N,Net-(U1-Pad9)*%
X198120000Y-66040000D03*
%TO.P,J5,4,Pin_4*%
%TO.N,Net-(U1-Pad10)*%
X198120000Y-68580000D03*
%TD*%
D16*
%TO.P,J3,1,Pin_1*%
%TO.N,Net-(J3-Pad1)*%
X198120000Y-78740000D03*
D17*
%TO.P,J3,2,Pin_2*%
%TO.N,GND*%
X198120000Y-81280000D03*
%TD*%
D18*
%TO.P,J2,1,Pin_1*%
%TO.N,+5V*%
X148365000Y-115570000D03*
D19*
%TO.P,J2,2,Pin_2*%
%TO.N,GND*%
X153365000Y-115570000D03*
%TD*%
D16*
%TO.P,J1,1,Pin_1*%
%TO.N,Net-(J1-Pad1)*%
X147320000Y-52070000D03*
D17*
%TO.P,J1,2,Pin_2*%
%TO.N,GND*%
X149860000Y-52070000D03*
%TO.P,J1,3,Pin_3*%
%TO.N,Net-(U1-Pad6)*%
X152400000Y-52070000D03*
%TO.P,J1,4,Pin_4*%
%TO.N,Net-(U1-Pad7)*%
X154940000Y-52070000D03*
%TD*%
D20*
%TO.N,Net-(U1-Pad4)*%
X163415489Y-77565489D02*
X179165489Y-77565489D01*
X179165489Y-77565489D02*
X200660000Y-99060000D01*
X163415489Y-77565489D02*
X146050000Y-60200000D01*
%TO.N,Net-(U1-Pad9)*%
X175260000Y-66040000D02*
X166370000Y-57150000D01*
X198120000Y-66040000D02*
X175260000Y-66040000D01*
X166370000Y-57150000D02*
X161800000Y-57150000D01*
X161800000Y-57150000D02*
X158750000Y-60200000D01*
%TO.N,Net-(U1-Pad10)*%
X167640000Y-68580000D02*
X161290000Y-62230000D01*
X161290000Y-62230000D02*
X161290000Y-60200000D01*
X198120000Y-68580000D02*
X167640000Y-68580000D01*
%TD*%
%TA.AperFunction,Conductor*%
%TO.N,GND*%
G36*
X203215931Y-45740002D02*
G01*
X203236905Y-45756905D01*
X204433095Y-46953095D01*
X204467121Y-47015407D01*
X204470000Y-47042190D01*
X204470000Y-125677810D01*
X204449998Y-125745931D01*
X204433095Y-125766905D01*
X203236905Y-126963095D01*
X203174593Y-126997121D01*
X203147810Y-127000000D01*
X137189745Y-127000000D01*
X137133396Y-126986698D01*
X134689650Y-125764825D01*
X134637667Y-125716471D01*
X134620000Y-125652128D01*
X134620000Y-124567165D01*
X135407866Y-124567165D01*
X135442952Y-124824970D01*
X135515758Y-125074757D01*
X135624686Y-125311039D01*
X135627246Y-125314944D01*
X135627249Y-125314949D01*
X135764775Y-125524712D01*
X135764779Y-125524717D01*
X135767341Y-125528625D01*
X135940591Y-125722735D01*
X136140629Y-125889105D01*
X136363061Y-126024080D01*
X136367375Y-126025889D01*
X136367377Y-126025890D01*
X136598686Y-126122886D01*
X136598691Y-126122888D01*
X136603001Y-126124695D01*
X136607533Y-126125846D01*
X136607536Y-126125847D01*
X136732815Y-126157663D01*
X136855177Y-126188739D01*
X137071286Y-126210500D01*
X137226044Y-126210500D01*
X137228369Y-126210327D01*
X137228375Y-126210327D01*
X137414814Y-126196472D01*
X137414818Y-126196471D01*
X137419466Y-126196126D01*
X137673232Y-126138705D01*
X137677586Y-126137012D01*
X137911370Y-126046098D01*
X137911372Y-126046097D01*
X137915723Y-126044405D01*
X137951285Y-126024080D01*
X138000050Y-125996208D01*
X138141612Y-125915299D01*
X138345936Y-125754223D01*
X138524208Y-125564714D01*
X138672511Y-125350937D01*
X138674579Y-125346744D01*
X138785521Y-125121775D01*
X138785522Y-125121772D01*
X138787586Y-125117587D01*
X138866906Y-124869792D01*
X138908728Y-124612994D01*
X138909306Y-124568856D01*
X177666601Y-124568856D01*
X177673059Y-124578216D01*
X177689361Y-124592512D01*
X177695901Y-124597530D01*
X177935144Y-124757387D01*
X177942281Y-124761508D01*
X178200349Y-124888772D01*
X178207953Y-124891922D01*
X178480420Y-124984412D01*
X178488383Y-124986546D01*
X178770600Y-125042683D01*
X178778751Y-125043756D01*
X179065881Y-125062575D01*
X179074119Y-125062575D01*
X179361249Y-125043756D01*
X179369400Y-125042683D01*
X179651617Y-124986546D01*
X179659580Y-124984412D01*
X179932047Y-124891922D01*
X179939651Y-124888772D01*
X180197719Y-124761508D01*
X180204856Y-124757387D01*
X180444099Y-124597530D01*
X180450639Y-124592512D01*
X180465074Y-124579853D01*
X180473122Y-124567165D01*
X200177866Y-124567165D01*
X200212952Y-124824970D01*
X200285758Y-125074757D01*
X200394686Y-125311039D01*
X200397246Y-125314944D01*
X200397249Y-125314949D01*
X200534775Y-125524712D01*
X200534779Y-125524717D01*
X200537341Y-125528625D01*
X200710591Y-125722735D01*
X200910629Y-125889105D01*
X201133061Y-126024080D01*
X201137375Y-126025889D01*
X201137377Y-126025890D01*
X201368686Y-126122886D01*
X201368691Y-126122888D01*
X201373001Y-126124695D01*
X201377533Y-126125846D01*
X201377536Y-126125847D01*
X201502815Y-126157663D01*
X201625177Y-126188739D01*
X201841286Y-126210500D01*
X201996044Y-126210500D01*
X201998369Y-126210327D01*
X201998375Y-126210327D01*
X202184814Y-126196472D01*
X202184818Y-126196471D01*
X202189466Y-126196126D01*
X202443232Y-126138705D01*
X202447586Y-126137012D01*
X202681370Y-126046098D01*
X202681372Y-126046097D01*
X202685723Y-126044405D01*
X202721285Y-126024080D01*
X202770050Y-125996208D01*
X202911612Y-125915299D01*
X203115936Y-125754223D01*
X203294208Y-125564714D01*
X203442511Y-125350937D01*
X203444579Y-125346744D01*
X203555521Y-125121775D01*
X203555522Y-125121772D01*
X203557586Y-125117587D01*
X203636906Y-124869792D01*
X203678728Y-124612994D01*
X203682134Y-124352835D01*
X203647048Y-124095030D01*
X203574242Y-123845243D01*
X203465314Y-123608961D01*
X203436637Y-123565221D01*
X203325225Y-123395288D01*
X203325221Y-123395283D01*
X203322659Y-123391375D01*
X203149409Y-123197265D01*
X202949371Y-123030895D01*
X202726939Y-122895920D01*
X202722623Y-122894110D01*
X202491314Y-122797114D01*
X202491309Y-122797112D01*
X202486999Y-122795305D01*
X202482467Y-122794154D01*
X202482464Y-122794153D01*
X202357185Y-122762337D01*
X202234823Y-122731261D01*
X202018714Y-122709500D01*
X201863956Y-122709500D01*
X201861631Y-122709673D01*
X201861625Y-122709673D01*
X201675186Y-122723528D01*
X201675182Y-122723529D01*
X201670534Y-122723874D01*
X201416768Y-122781295D01*
X201412416Y-122782987D01*
X201412414Y-122782988D01*
X201178630Y-122873902D01*
X201178628Y-122873903D01*
X201174277Y-122875595D01*
X201170223Y-122877912D01*
X201170221Y-122877913D01*
X201134467Y-122898348D01*
X200948388Y-123004701D01*
X200744064Y-123165777D01*
X200565792Y-123355286D01*
X200417489Y-123569063D01*
X200415423Y-123573253D01*
X200415421Y-123573256D01*
X200367885Y-123669651D01*
X200302414Y-123802413D01*
X200223094Y-124050208D01*
X200181272Y-124307006D01*
X200177866Y-124567165D01*
X180473122Y-124567165D01*
X180473472Y-124566614D01*
X180467638Y-124556849D01*
X179082810Y-123172020D01*
X179068869Y-123164408D01*
X179067034Y-123164539D01*
X179060420Y-123168790D01*
X177674116Y-124555095D01*
X177666601Y-124568856D01*
X138909306Y-124568856D01*
X138912134Y-124352835D01*
X138877048Y-124095030D01*
X138804242Y-123845243D01*
X138695314Y-123608961D01*
X138666637Y-123565221D01*
X138555225Y-123395288D01*
X138555221Y-123395283D01*
X138552659Y-123391375D01*
X138379409Y-123197265D01*
X138179371Y-123030895D01*
X137956939Y-122895920D01*
X137952623Y-122894110D01*
X137738019Y-122804119D01*
X176807425Y-122804119D01*
X176826244Y-123091249D01*
X176827317Y-123099400D01*
X176883454Y-123381617D01*
X176885588Y-123389580D01*
X176978078Y-123662047D01*
X176981228Y-123669651D01*
X177108492Y-123927718D01*
X177112613Y-123934855D01*
X177272470Y-124174099D01*
X177277488Y-124180639D01*
X177290147Y-124195074D01*
X177303386Y-124203472D01*
X177313151Y-124197638D01*
X178697980Y-122812810D01*
X178704357Y-122801131D01*
X179434408Y-122801131D01*
X179434539Y-122802966D01*
X179438790Y-122809580D01*
X180825095Y-124195884D01*
X180838856Y-124203399D01*
X180848216Y-124196941D01*
X180862512Y-124180639D01*
X180867530Y-124174099D01*
X181027387Y-123934855D01*
X181031508Y-123927718D01*
X181158772Y-123669651D01*
X181161922Y-123662047D01*
X181254412Y-123389580D01*
X181256546Y-123381617D01*
X181312683Y-123099400D01*
X181313756Y-123091249D01*
X181332575Y-122804119D01*
X181332575Y-122795881D01*
X181313756Y-122508751D01*
X181312683Y-122500600D01*
X181256546Y-122218383D01*
X181254412Y-122210420D01*
X181161922Y-121937953D01*
X181158772Y-121930349D01*
X181031508Y-121672282D01*
X181027387Y-121665145D01*
X180867530Y-121425901D01*
X180862512Y-121419361D01*
X180849853Y-121404926D01*
X180836614Y-121396528D01*
X180826849Y-121402362D01*
X179442020Y-122787190D01*
X179434408Y-122801131D01*
X178704357Y-122801131D01*
X178705592Y-122798869D01*
X178705461Y-122797034D01*
X178701210Y-122790420D01*
X177314905Y-121404116D01*
X177301144Y-121396601D01*
X177291784Y-121403059D01*
X177277488Y-121419361D01*
X177272470Y-121425901D01*
X177112613Y-121665145D01*
X177108492Y-121672282D01*
X176981228Y-121930349D01*
X176978078Y-121937953D01*
X176885588Y-122210420D01*
X176883454Y-122218383D01*
X176827317Y-122500600D01*
X176826244Y-122508751D01*
X176807425Y-122795881D01*
X176807425Y-122804119D01*
X137738019Y-122804119D01*
X137721314Y-122797114D01*
X137721309Y-122797112D01*
X137716999Y-122795305D01*
X137712467Y-122794154D01*
X137712464Y-122794153D01*
X137587185Y-122762337D01*
X137464823Y-122731261D01*
X137248714Y-122709500D01*
X137093956Y-122709500D01*
X137091631Y-122709673D01*
X137091625Y-122709673D01*
X136905186Y-122723528D01*
X136905182Y-122723529D01*
X136900534Y-122723874D01*
X136646768Y-122781295D01*
X136642416Y-122782987D01*
X136642414Y-122782988D01*
X136408630Y-122873902D01*
X136408628Y-122873903D01*
X136404277Y-122875595D01*
X136400223Y-122877912D01*
X136400221Y-122877913D01*
X136364467Y-122898348D01*
X136178388Y-123004701D01*
X135974064Y-123165777D01*
X135795792Y-123355286D01*
X135647489Y-123569063D01*
X135645423Y-123573253D01*
X135645421Y-123573256D01*
X135597885Y-123669651D01*
X135532414Y-123802413D01*
X135453094Y-124050208D01*
X135411272Y-124307006D01*
X135407866Y-124567165D01*
X134620000Y-124567165D01*
X134620000Y-121033386D01*
X177666528Y-121033386D01*
X177672362Y-121043151D01*
X179057190Y-122427980D01*
X179071131Y-122435592D01*
X179072966Y-122435461D01*
X179079580Y-122431210D01*
X180465884Y-121044905D01*
X180473399Y-121031144D01*
X180466941Y-121021784D01*
X180450639Y-121007488D01*
X180444099Y-121002470D01*
X180204856Y-120842613D01*
X180197719Y-120838492D01*
X179939651Y-120711228D01*
X179932047Y-120708078D01*
X179659580Y-120615588D01*
X179651617Y-120613454D01*
X179369400Y-120557317D01*
X179361249Y-120556244D01*
X179074119Y-120537425D01*
X179065881Y-120537425D01*
X178778751Y-120556244D01*
X178770600Y-120557317D01*
X178488383Y-120613454D01*
X178480420Y-120615588D01*
X178207953Y-120708078D01*
X178200349Y-120711228D01*
X177942282Y-120838492D01*
X177935145Y-120842613D01*
X177695901Y-121002470D01*
X177689361Y-121007488D01*
X177674926Y-121020147D01*
X177666528Y-121033386D01*
X134620000Y-121033386D01*
X134620000Y-113542623D01*
X146874500Y-113542623D01*
X146874501Y-117597376D01*
X146881149Y-117658580D01*
X146931474Y-117792824D01*
X146936854Y-117800003D01*
X146936856Y-117800006D01*
X146947713Y-117814492D01*
X147017454Y-117907546D01*
X147024635Y-117912928D01*
X147124994Y-117988144D01*
X147124997Y-117988146D01*
X147132176Y-117993526D01*
X147210783Y-118022994D01*
X147259025Y-118041079D01*
X147259027Y-118041079D01*
X147266420Y-118043851D01*
X147274270Y-118044704D01*
X147274271Y-118044704D01*
X147324217Y-118050130D01*
X147327623Y-118050500D01*
X148364848Y-118050500D01*
X149402376Y-118050499D01*
X149405770Y-118050130D01*
X149405776Y-118050130D01*
X149455722Y-118044705D01*
X149455726Y-118044704D01*
X149463580Y-118043851D01*
X149597824Y-117993526D01*
X149605003Y-117988146D01*
X149605006Y-117988144D01*
X149705365Y-117912928D01*
X149712546Y-117907546D01*
X149782287Y-117814492D01*
X149793144Y-117800006D01*
X149793146Y-117800003D01*
X149798526Y-117792824D01*
X149848851Y-117658580D01*
X149855500Y-117597377D01*
X149855500Y-116619857D01*
X151867000Y-116619857D01*
X151867212Y-116625030D01*
X151881626Y-116800350D01*
X151883309Y-116810512D01*
X151940800Y-117039396D01*
X151944121Y-117049151D01*
X152038218Y-117265557D01*
X152043096Y-117274655D01*
X152171273Y-117472787D01*
X152177563Y-117480956D01*
X152336387Y-117655501D01*
X152343920Y-117662526D01*
X152529120Y-117808787D01*
X152537707Y-117814492D01*
X152744297Y-117928536D01*
X152753709Y-117932766D01*
X152976156Y-118011539D01*
X152986127Y-118014173D01*
X153093163Y-118033239D01*
X153106460Y-118031779D01*
X153110591Y-118018534D01*
X153619000Y-118018534D01*
X153622918Y-118031878D01*
X153637194Y-118033865D01*
X153708236Y-118022994D01*
X153718263Y-118020605D01*
X153942570Y-117947291D01*
X153952079Y-117943294D01*
X154161395Y-117834331D01*
X154170120Y-117828837D01*
X154358835Y-117687146D01*
X154366542Y-117680303D01*
X154529584Y-117509690D01*
X154536067Y-117501684D01*
X154669057Y-117306726D01*
X154674143Y-117297774D01*
X154773506Y-117083715D01*
X154777060Y-117074055D01*
X154840130Y-116846631D01*
X154842057Y-116836527D01*
X154862644Y-116643898D01*
X154863000Y-116637206D01*
X154863000Y-115842115D01*
X154858525Y-115826876D01*
X154857135Y-115825671D01*
X154849452Y-115824000D01*
X153637115Y-115824000D01*
X153621876Y-115828475D01*
X153620671Y-115829865D01*
X153619000Y-115837548D01*
X153619000Y-118018534D01*
X153110591Y-118018534D01*
X153111000Y-118017222D01*
X153111000Y-115842115D01*
X153106525Y-115826876D01*
X153105135Y-115825671D01*
X153097452Y-115824000D01*
X151885115Y-115824000D01*
X151869876Y-115828475D01*
X151868671Y-115829865D01*
X151867000Y-115837548D01*
X151867000Y-116619857D01*
X149855500Y-116619857D01*
X149855499Y-115297885D01*
X151867000Y-115297885D01*
X151871475Y-115313124D01*
X151872865Y-115314329D01*
X151880548Y-115316000D01*
X153092885Y-115316000D01*
X153108124Y-115311525D01*
X153109329Y-115310135D01*
X153111000Y-115302452D01*
X153111000Y-115297885D01*
X153619000Y-115297885D01*
X153623475Y-115313124D01*
X153624865Y-115314329D01*
X153632548Y-115316000D01*
X154844885Y-115316000D01*
X154860124Y-115311525D01*
X154861329Y-115310135D01*
X154863000Y-115302452D01*
X154863000Y-115187200D01*
X176968747Y-115187200D01*
X176969306Y-115191444D01*
X176969306Y-115191448D01*
X176981491Y-115284000D01*
X177006129Y-115471149D01*
X177081702Y-115747398D01*
X177083386Y-115751346D01*
X177149667Y-115906738D01*
X177194068Y-116010835D01*
X177341146Y-116256585D01*
X177520215Y-116480100D01*
X177727962Y-116677245D01*
X177960543Y-116844371D01*
X178213653Y-116978386D01*
X178237870Y-116987248D01*
X178475082Y-117074055D01*
X178482610Y-117076810D01*
X178762436Y-117137822D01*
X178801901Y-117140928D01*
X178984597Y-117155307D01*
X178984604Y-117155307D01*
X178987053Y-117155500D01*
X179141992Y-117155500D01*
X179144128Y-117155354D01*
X179144139Y-117155354D01*
X179351460Y-117141220D01*
X179351466Y-117141219D01*
X179355737Y-117140928D01*
X179359932Y-117140059D01*
X179359934Y-117140059D01*
X179495962Y-117111889D01*
X179636186Y-117082850D01*
X179906158Y-116987248D01*
X180160658Y-116855891D01*
X180164159Y-116853430D01*
X180164163Y-116853428D01*
X180391471Y-116693673D01*
X180391477Y-116693668D01*
X180394976Y-116691209D01*
X180604776Y-116496251D01*
X180615575Y-116483058D01*
X180783461Y-116277941D01*
X180786177Y-116274623D01*
X180935820Y-116030427D01*
X180942802Y-116014522D01*
X181049214Y-115772110D01*
X181049215Y-115772106D01*
X181050938Y-115768182D01*
X181129400Y-115492739D01*
X181157201Y-115297399D01*
X196769712Y-115297399D01*
X196791194Y-115386537D01*
X196795083Y-115397832D01*
X196877629Y-115579382D01*
X196883576Y-115589724D01*
X196998968Y-115752397D01*
X197006761Y-115761425D01*
X197150831Y-115899342D01*
X197160196Y-115906738D01*
X197327741Y-116014921D01*
X197338345Y-116020417D01*
X197523312Y-116094961D01*
X197534770Y-116098355D01*
X197731928Y-116136857D01*
X197740791Y-116137934D01*
X197743500Y-116138000D01*
X197847885Y-116138000D01*
X197863124Y-116133525D01*
X197864329Y-116132135D01*
X197866000Y-116124452D01*
X197866000Y-116119885D01*
X198374000Y-116119885D01*
X198378475Y-116135124D01*
X198379865Y-116136329D01*
X198387548Y-116138000D01*
X198444832Y-116138000D01*
X198450808Y-116137715D01*
X198599494Y-116123529D01*
X198611228Y-116121270D01*
X198802599Y-116065128D01*
X198813675Y-116060698D01*
X198990978Y-115969381D01*
X199001024Y-115962931D01*
X199157857Y-115839738D01*
X199166506Y-115831501D01*
X199297212Y-115680877D01*
X199304147Y-115671153D01*
X199404010Y-115498533D01*
X199408984Y-115487669D01*
X199474407Y-115299273D01*
X199474648Y-115298284D01*
X199473180Y-115287992D01*
X199459615Y-115284000D01*
X198392115Y-115284000D01*
X198376876Y-115288475D01*
X198375671Y-115289865D01*
X198374000Y-115297548D01*
X198374000Y-116119885D01*
X197866000Y-116119885D01*
X197866000Y-115302115D01*
X197861525Y-115286876D01*
X197860135Y-115285671D01*
X197852452Y-115284000D01*
X196784598Y-115284000D01*
X196771067Y-115287973D01*
X196769712Y-115297399D01*
X181157201Y-115297399D01*
X181169754Y-115209196D01*
X181171253Y-114922800D01*
X181167798Y-114896552D01*
X181149916Y-114760727D01*
X181133871Y-114638851D01*
X181058298Y-114362602D01*
X181030988Y-114298575D01*
X180947618Y-114103117D01*
X180947616Y-114103113D01*
X180945932Y-114099165D01*
X180798854Y-113853415D01*
X180795594Y-113849345D01*
X180622475Y-113633258D01*
X180619785Y-113629900D01*
X180459162Y-113477474D01*
X180415147Y-113435705D01*
X180415144Y-113435703D01*
X180412038Y-113432755D01*
X180408018Y-113429866D01*
X196744500Y-113429866D01*
X196744837Y-113433112D01*
X196744837Y-113433116D01*
X196754515Y-113526383D01*
X196755359Y-113534519D01*
X196757540Y-113541055D01*
X196757540Y-113541057D01*
X196787180Y-113629900D01*
X196810744Y-113700529D01*
X196902834Y-113849345D01*
X197026689Y-113972984D01*
X197032921Y-113976825D01*
X197032923Y-113976827D01*
X197080392Y-114006087D01*
X197127886Y-114058858D01*
X197139310Y-114128930D01*
X197111037Y-114194054D01*
X197092112Y-114212431D01*
X197082147Y-114220259D01*
X197073494Y-114228499D01*
X196942788Y-114379123D01*
X196935853Y-114388847D01*
X196835990Y-114561467D01*
X196831016Y-114572331D01*
X196765593Y-114760727D01*
X196765352Y-114761716D01*
X196766820Y-114772008D01*
X196780385Y-114776000D01*
X199455402Y-114776000D01*
X199468933Y-114772027D01*
X199470288Y-114762601D01*
X199448806Y-114673463D01*
X199444917Y-114662168D01*
X199362371Y-114480618D01*
X199356424Y-114470276D01*
X199241032Y-114307603D01*
X199233239Y-114298575D01*
X199136274Y-114205751D01*
X199100898Y-114144196D01*
X199104417Y-114073286D01*
X199145714Y-114015536D01*
X199157102Y-114007589D01*
X199208117Y-113976020D01*
X199214345Y-113972166D01*
X199337984Y-113848311D01*
X199429814Y-113699334D01*
X199480660Y-113546042D01*
X199482744Y-113539759D01*
X199482745Y-113539757D01*
X199484910Y-113533228D01*
X199495500Y-113429866D01*
X199495500Y-112630134D01*
X199495163Y-112626884D01*
X199485353Y-112532339D01*
X199485352Y-112532335D01*
X199484641Y-112525481D01*
X199429256Y-112359471D01*
X199337166Y-112210655D01*
X199213311Y-112087016D01*
X199064334Y-111995186D01*
X199057385Y-111992881D01*
X198904759Y-111942256D01*
X198904757Y-111942255D01*
X198898228Y-111940090D01*
X198794866Y-111929500D01*
X197445134Y-111929500D01*
X197441888Y-111929837D01*
X197441884Y-111929837D01*
X197347339Y-111939647D01*
X197347335Y-111939648D01*
X197340481Y-111940359D01*
X197333945Y-111942540D01*
X197333943Y-111942540D01*
X197194860Y-111988942D01*
X197174471Y-111995744D01*
X197025655Y-112087834D01*
X196902016Y-112211689D01*
X196810186Y-112360666D01*
X196755090Y-112526772D01*
X196744500Y-112630134D01*
X196744500Y-113429866D01*
X180408018Y-113429866D01*
X180179457Y-113265629D01*
X179926347Y-113131614D01*
X179657390Y-113033190D01*
X179377564Y-112972178D01*
X179334389Y-112968780D01*
X179155403Y-112954693D01*
X179155396Y-112954693D01*
X179152947Y-112954500D01*
X178998008Y-112954500D01*
X178995872Y-112954646D01*
X178995861Y-112954646D01*
X178788540Y-112968780D01*
X178788534Y-112968781D01*
X178784263Y-112969072D01*
X178780068Y-112969941D01*
X178780066Y-112969941D01*
X178644038Y-112998111D01*
X178503814Y-113027150D01*
X178233842Y-113122752D01*
X177979342Y-113254109D01*
X177975841Y-113256570D01*
X177975837Y-113256572D01*
X177748529Y-113416327D01*
X177748523Y-113416332D01*
X177745024Y-113418791D01*
X177708368Y-113452854D01*
X177608088Y-113546040D01*
X177535224Y-113613749D01*
X177532510Y-113617065D01*
X177532507Y-113617068D01*
X177521669Y-113630310D01*
X177353823Y-113835377D01*
X177204180Y-114079573D01*
X177202453Y-114083507D01*
X177202452Y-114083509D01*
X177094475Y-114329488D01*
X177089062Y-114341818D01*
X177010600Y-114617261D01*
X176970246Y-114900804D01*
X176968747Y-115187200D01*
X154863000Y-115187200D01*
X154863000Y-114520143D01*
X154862788Y-114514970D01*
X154848374Y-114339650D01*
X154846691Y-114329488D01*
X154789200Y-114100604D01*
X154785879Y-114090849D01*
X154691782Y-113874443D01*
X154686904Y-113865345D01*
X154558727Y-113667213D01*
X154552437Y-113659044D01*
X154393613Y-113484499D01*
X154386080Y-113477474D01*
X154200880Y-113331213D01*
X154192293Y-113325508D01*
X153985703Y-113211464D01*
X153976291Y-113207234D01*
X153753844Y-113128461D01*
X153743873Y-113125827D01*
X153636837Y-113106761D01*
X153623540Y-113108221D01*
X153619000Y-113122778D01*
X153619000Y-115297885D01*
X153111000Y-115297885D01*
X153111000Y-113121466D01*
X153107082Y-113108122D01*
X153092806Y-113106135D01*
X153021764Y-113117006D01*
X153011737Y-113119395D01*
X152787430Y-113192709D01*
X152777921Y-113196706D01*
X152568605Y-113305669D01*
X152559880Y-113311163D01*
X152371165Y-113452854D01*
X152363458Y-113459697D01*
X152200416Y-113630310D01*
X152193933Y-113638316D01*
X152060943Y-113833274D01*
X152055857Y-113842226D01*
X151956494Y-114056285D01*
X151952940Y-114065945D01*
X151889870Y-114293369D01*
X151887943Y-114303473D01*
X151867356Y-114496102D01*
X151867000Y-114502794D01*
X151867000Y-115297885D01*
X149855499Y-115297885D01*
X149855499Y-113542624D01*
X149854619Y-113534519D01*
X149849705Y-113489278D01*
X149849704Y-113489274D01*
X149848851Y-113481420D01*
X149798526Y-113347176D01*
X149793146Y-113339997D01*
X149793144Y-113339994D01*
X149717928Y-113239635D01*
X149712546Y-113232454D01*
X149705365Y-113227072D01*
X149605006Y-113151856D01*
X149605003Y-113151854D01*
X149597824Y-113146474D01*
X149495783Y-113108221D01*
X149470975Y-113098921D01*
X149470973Y-113098921D01*
X149463580Y-113096149D01*
X149455730Y-113095296D01*
X149455729Y-113095296D01*
X149405774Y-113089869D01*
X149405773Y-113089869D01*
X149402377Y-113089500D01*
X148365152Y-113089500D01*
X147327624Y-113089501D01*
X147324230Y-113089870D01*
X147324224Y-113089870D01*
X147274278Y-113095295D01*
X147274274Y-113095296D01*
X147266420Y-113096149D01*
X147132176Y-113146474D01*
X147124997Y-113151854D01*
X147124994Y-113151856D01*
X147024635Y-113227072D01*
X147017454Y-113232454D01*
X147012072Y-113239635D01*
X146936856Y-113339994D01*
X146936854Y-113339997D01*
X146931474Y-113347176D01*
X146881149Y-113481420D01*
X146874500Y-113542623D01*
X134620000Y-113542623D01*
X134620000Y-102482623D01*
X139619500Y-102482623D01*
X139619501Y-104277376D01*
X139626149Y-104338580D01*
X139676474Y-104472824D01*
X139681854Y-104480003D01*
X139681856Y-104480006D01*
X139739082Y-104556361D01*
X139762454Y-104587546D01*
X139769635Y-104592928D01*
X139869994Y-104668144D01*
X139869997Y-104668146D01*
X139877176Y-104673526D01*
X139920468Y-104689755D01*
X140004025Y-104721079D01*
X140004027Y-104721079D01*
X140011420Y-104723851D01*
X140019270Y-104724704D01*
X140019271Y-104724704D01*
X140069217Y-104730130D01*
X140072623Y-104730500D01*
X140969868Y-104730500D01*
X141867376Y-104730499D01*
X141870770Y-104730130D01*
X141870776Y-104730130D01*
X141920722Y-104724705D01*
X141920726Y-104724704D01*
X141928580Y-104723851D01*
X142062824Y-104673526D01*
X142070003Y-104668146D01*
X142070006Y-104668144D01*
X142170365Y-104592928D01*
X142177546Y-104587546D01*
X142200918Y-104556361D01*
X142258144Y-104480006D01*
X142258146Y-104480003D01*
X142263526Y-104472824D01*
X142282709Y-104421654D01*
X142309695Y-104349667D01*
X142311912Y-104343752D01*
X142354553Y-104286987D01*
X142421114Y-104262286D01*
X142490463Y-104277493D01*
X142518989Y-104298885D01*
X142638599Y-104418495D01*
X142643107Y-104421652D01*
X142643110Y-104421654D01*
X142827661Y-104550878D01*
X142832170Y-104554035D01*
X142837152Y-104556358D01*
X142837157Y-104556361D01*
X143041355Y-104651580D01*
X143046337Y-104653903D01*
X143051645Y-104655325D01*
X143051647Y-104655326D01*
X143269277Y-104713639D01*
X143274592Y-104715063D01*
X143510000Y-104735659D01*
X143745408Y-104715063D01*
X143750723Y-104713639D01*
X143968353Y-104655326D01*
X143968355Y-104655325D01*
X143973663Y-104653903D01*
X143978645Y-104651580D01*
X144182843Y-104556361D01*
X144182848Y-104556358D01*
X144187830Y-104554035D01*
X144192339Y-104550878D01*
X144376890Y-104421654D01*
X144376893Y-104421652D01*
X144381401Y-104418495D01*
X144548495Y-104251401D01*
X144676787Y-104068180D01*
X144732244Y-104023851D01*
X144802863Y-104016542D01*
X144866224Y-104048572D01*
X144883212Y-104068179D01*
X145011505Y-104251401D01*
X145178599Y-104418495D01*
X145183107Y-104421652D01*
X145183110Y-104421654D01*
X145367661Y-104550878D01*
X145372170Y-104554035D01*
X145377152Y-104556358D01*
X145377157Y-104556361D01*
X145581355Y-104651580D01*
X145586337Y-104653903D01*
X145591645Y-104655325D01*
X145591647Y-104655326D01*
X145809277Y-104713639D01*
X145814592Y-104715063D01*
X146050000Y-104735659D01*
X146285408Y-104715063D01*
X146290723Y-104713639D01*
X146508353Y-104655326D01*
X146508355Y-104655325D01*
X146513663Y-104653903D01*
X146518645Y-104651580D01*
X146722843Y-104556361D01*
X146722848Y-104556358D01*
X146727830Y-104554035D01*
X146732339Y-104550878D01*
X146916890Y-104421654D01*
X146916893Y-104421652D01*
X146921401Y-104418495D01*
X147088495Y-104251401D01*
X147216787Y-104068180D01*
X147272244Y-104023851D01*
X147342863Y-104016542D01*
X147406224Y-104048572D01*
X147423212Y-104068179D01*
X147551505Y-104251401D01*
X147718599Y-104418495D01*
X147723107Y-104421652D01*
X147723110Y-104421654D01*
X147907661Y-104550878D01*
X147912170Y-104554035D01*
X147917152Y-104556358D01*
X147917157Y-104556361D01*
X148121355Y-104651580D01*
X148126337Y-104653903D01*
X148131645Y-104655325D01*
X148131647Y-104655326D01*
X148349277Y-104713639D01*
X148354592Y-104715063D01*
X148590000Y-104735659D01*
X148825408Y-104715063D01*
X148830723Y-104713639D01*
X149048353Y-104655326D01*
X149048355Y-104655325D01*
X149053663Y-104653903D01*
X149058645Y-104651580D01*
X149262843Y-104556361D01*
X149262848Y-104556358D01*
X149267830Y-104554035D01*
X149272339Y-104550878D01*
X149456890Y-104421654D01*
X149456893Y-104421652D01*
X149461401Y-104418495D01*
X149628495Y-104251401D01*
X149756787Y-104068180D01*
X149812244Y-104023851D01*
X149882863Y-104016542D01*
X149946224Y-104048572D01*
X149963212Y-104068179D01*
X150091505Y-104251401D01*
X150258599Y-104418495D01*
X150263107Y-104421652D01*
X150263110Y-104421654D01*
X150447661Y-104550878D01*
X150452170Y-104554035D01*
X150457152Y-104556358D01*
X150457157Y-104556361D01*
X150661355Y-104651580D01*
X150666337Y-104653903D01*
X150671645Y-104655325D01*
X150671647Y-104655326D01*
X150889277Y-104713639D01*
X150894592Y-104715063D01*
X151130000Y-104735659D01*
X151365408Y-104715063D01*
X151370723Y-104713639D01*
X151588353Y-104655326D01*
X151588355Y-104655325D01*
X151593663Y-104653903D01*
X151598645Y-104651580D01*
X151802843Y-104556361D01*
X151802848Y-104556358D01*
X151807830Y-104554035D01*
X151812339Y-104550878D01*
X151996890Y-104421654D01*
X151996893Y-104421652D01*
X152001401Y-104418495D01*
X152168495Y-104251401D01*
X152294358Y-104071649D01*
X152349814Y-104027322D01*
X152420433Y-104020013D01*
X152483794Y-104052043D01*
X152505003Y-104078086D01*
X152567694Y-104180388D01*
X152573777Y-104188699D01*
X152713213Y-104349667D01*
X152720580Y-104356883D01*
X152884434Y-104492916D01*
X152892881Y-104498831D01*
X153076756Y-104606279D01*
X153086042Y-104610729D01*
X153285001Y-104686703D01*
X153294898Y-104689579D01*
X153352249Y-104701247D01*
X153366299Y-104700051D01*
X153369982Y-104689755D01*
X153970000Y-104689755D01*
X153973973Y-104703286D01*
X153981617Y-104704385D01*
X154162250Y-104650192D01*
X154171845Y-104646432D01*
X154363095Y-104552739D01*
X154371945Y-104547464D01*
X154545328Y-104423792D01*
X154553200Y-104417139D01*
X154704052Y-104266812D01*
X154710730Y-104258965D01*
X154835002Y-104086022D01*
X154837003Y-104082692D01*
X154889237Y-104034606D01*
X154959175Y-104022394D01*
X155024613Y-104049931D01*
X155048215Y-104075324D01*
X155171505Y-104251401D01*
X155338599Y-104418495D01*
X155343107Y-104421652D01*
X155343110Y-104421654D01*
X155527661Y-104550878D01*
X155532170Y-104554035D01*
X155537152Y-104556358D01*
X155537157Y-104556361D01*
X155741355Y-104651580D01*
X155746337Y-104653903D01*
X155751645Y-104655325D01*
X155751647Y-104655326D01*
X155969277Y-104713639D01*
X155974592Y-104715063D01*
X156210000Y-104735659D01*
X156445408Y-104715063D01*
X156450723Y-104713639D01*
X156668353Y-104655326D01*
X156668355Y-104655325D01*
X156673663Y-104653903D01*
X156678645Y-104651580D01*
X156882843Y-104556361D01*
X156882848Y-104556358D01*
X156887830Y-104554035D01*
X156892339Y-104550878D01*
X157076890Y-104421654D01*
X157076893Y-104421652D01*
X157081401Y-104418495D01*
X157248495Y-104251401D01*
X157376787Y-104068180D01*
X157432244Y-104023851D01*
X157502863Y-104016542D01*
X157566224Y-104048572D01*
X157583212Y-104068179D01*
X157711505Y-104251401D01*
X157878599Y-104418495D01*
X157883107Y-104421652D01*
X157883110Y-104421654D01*
X158067661Y-104550878D01*
X158072170Y-104554035D01*
X158077152Y-104556358D01*
X158077157Y-104556361D01*
X158281355Y-104651580D01*
X158286337Y-104653903D01*
X158291645Y-104655325D01*
X158291647Y-104655326D01*
X158509277Y-104713639D01*
X158514592Y-104715063D01*
X158750000Y-104735659D01*
X158985408Y-104715063D01*
X158990723Y-104713639D01*
X159208353Y-104655326D01*
X159208355Y-104655325D01*
X159213663Y-104653903D01*
X159218645Y-104651580D01*
X159422843Y-104556361D01*
X159422848Y-104556358D01*
X159427830Y-104554035D01*
X159432339Y-104550878D01*
X159616890Y-104421654D01*
X159616893Y-104421652D01*
X159621401Y-104418495D01*
X159788495Y-104251401D01*
X159888597Y-104108440D01*
X194374770Y-104108440D01*
X194389200Y-104328604D01*
X194390621Y-104334200D01*
X194390622Y-104334205D01*
X194442090Y-104536857D01*
X194443511Y-104542452D01*
X194445928Y-104547694D01*
X194445928Y-104547695D01*
X194484046Y-104630379D01*
X194535883Y-104742821D01*
X194663222Y-104923002D01*
X194821264Y-105076961D01*
X194826060Y-105080166D01*
X194826063Y-105080168D01*
X194910261Y-105136427D01*
X195004717Y-105199540D01*
X195010020Y-105201818D01*
X195010023Y-105201820D01*
X195202129Y-105284355D01*
X195207436Y-105286635D01*
X195287088Y-105304658D01*
X195416995Y-105334054D01*
X195417001Y-105334055D01*
X195422632Y-105335329D01*
X195428403Y-105335556D01*
X195428405Y-105335556D01*
X195496211Y-105338220D01*
X195643098Y-105343991D01*
X195752275Y-105328161D01*
X195855738Y-105313160D01*
X195855743Y-105313159D01*
X195861452Y-105312331D01*
X195866916Y-105310476D01*
X195866921Y-105310475D01*
X196064907Y-105243268D01*
X196064912Y-105243266D01*
X196070379Y-105241410D01*
X196262884Y-105133602D01*
X196432518Y-104992518D01*
X196573602Y-104822884D01*
X196649867Y-104686703D01*
X196678586Y-104635422D01*
X196678587Y-104635420D01*
X196681410Y-104630379D01*
X196683266Y-104624912D01*
X196683268Y-104624907D01*
X196750475Y-104426921D01*
X196750476Y-104426916D01*
X196752331Y-104421452D01*
X196753159Y-104415743D01*
X196753160Y-104415738D01*
X196777641Y-104246894D01*
X196783991Y-104203098D01*
X196785643Y-104140000D01*
X196782743Y-104108440D01*
X199454770Y-104108440D01*
X199469200Y-104328604D01*
X199470621Y-104334200D01*
X199470622Y-104334205D01*
X199522090Y-104536857D01*
X199523511Y-104542452D01*
X199525928Y-104547694D01*
X199525928Y-104547695D01*
X199564046Y-104630379D01*
X199615883Y-104742821D01*
X199743222Y-104923002D01*
X199901264Y-105076961D01*
X199906060Y-105080166D01*
X199906063Y-105080168D01*
X199990261Y-105136427D01*
X200084717Y-105199540D01*
X200090020Y-105201818D01*
X200090023Y-105201820D01*
X200282129Y-105284355D01*
X200287436Y-105286635D01*
X200367088Y-105304658D01*
X200496995Y-105334054D01*
X200497001Y-105334055D01*
X200502632Y-105335329D01*
X200508403Y-105335556D01*
X200508405Y-105335556D01*
X200576211Y-105338220D01*
X200723098Y-105343991D01*
X200832275Y-105328161D01*
X200935738Y-105313160D01*
X200935743Y-105313159D01*
X200941452Y-105312331D01*
X200946916Y-105310476D01*
X200946921Y-105310475D01*
X201144907Y-105243268D01*
X201144912Y-105243266D01*
X201150379Y-105241410D01*
X201342884Y-105133602D01*
X201512518Y-104992518D01*
X201653602Y-104822884D01*
X201729867Y-104686703D01*
X201758586Y-104635422D01*
X201758587Y-104635420D01*
X201761410Y-104630379D01*
X201763266Y-104624912D01*
X201763268Y-104624907D01*
X201830475Y-104426921D01*
X201830476Y-104426916D01*
X201832331Y-104421452D01*
X201833159Y-104415743D01*
X201833160Y-104415738D01*
X201857641Y-104246894D01*
X201863991Y-104203098D01*
X201865643Y-104140000D01*
X201845454Y-103920289D01*
X201823844Y-103843663D01*
X201787134Y-103713500D01*
X201785565Y-103707936D01*
X201687980Y-103510053D01*
X201555967Y-103333267D01*
X201393949Y-103183499D01*
X201207350Y-103065764D01*
X201002421Y-102984006D01*
X200996761Y-102982880D01*
X200996757Y-102982879D01*
X200791691Y-102942089D01*
X200791688Y-102942089D01*
X200786024Y-102940962D01*
X200780249Y-102940886D01*
X200780245Y-102940886D01*
X200669504Y-102939437D01*
X200565406Y-102938074D01*
X200559709Y-102939053D01*
X200559708Y-102939053D01*
X200353654Y-102974459D01*
X200353653Y-102974459D01*
X200347957Y-102975438D01*
X200140957Y-103051804D01*
X200135996Y-103054756D01*
X200135995Y-103054756D01*
X199993929Y-103139277D01*
X199951341Y-103164614D01*
X199785457Y-103310090D01*
X199648863Y-103483360D01*
X199546131Y-103678620D01*
X199480703Y-103889333D01*
X199454770Y-104108440D01*
X196782743Y-104108440D01*
X196765454Y-103920289D01*
X196743844Y-103843663D01*
X196707134Y-103713500D01*
X196705565Y-103707936D01*
X196607980Y-103510053D01*
X196475967Y-103333267D01*
X196313949Y-103183499D01*
X196127350Y-103065764D01*
X195922421Y-102984006D01*
X195916761Y-102982880D01*
X195916757Y-102982879D01*
X195711691Y-102942089D01*
X195711688Y-102942089D01*
X195706024Y-102940962D01*
X195700249Y-102940886D01*
X195700245Y-102940886D01*
X195589504Y-102939437D01*
X195485406Y-102938074D01*
X195479709Y-102939053D01*
X195479708Y-102939053D01*
X195273654Y-102974459D01*
X195273653Y-102974459D01*
X195267957Y-102975438D01*
X195060957Y-103051804D01*
X195055996Y-103054756D01*
X195055995Y-103054756D01*
X194913929Y-103139277D01*
X194871341Y-103164614D01*
X194705457Y-103310090D01*
X194568863Y-103483360D01*
X194466131Y-103678620D01*
X194400703Y-103889333D01*
X194374770Y-104108440D01*
X159888597Y-104108440D01*
X159924035Y-104057829D01*
X159939880Y-104023851D01*
X160021580Y-103848645D01*
X160021581Y-103848643D01*
X160023903Y-103843663D01*
X160060271Y-103707936D01*
X160083639Y-103620723D01*
X160083639Y-103620722D01*
X160085063Y-103615408D01*
X160105659Y-103380000D01*
X160085063Y-103144592D01*
X160064767Y-103068845D01*
X160025326Y-102921647D01*
X160025325Y-102921645D01*
X160023903Y-102916337D01*
X159940803Y-102738129D01*
X159926358Y-102707152D01*
X159926356Y-102707149D01*
X159924035Y-102702171D01*
X159788495Y-102508599D01*
X159621401Y-102341505D01*
X159616893Y-102338348D01*
X159616890Y-102338346D01*
X159432339Y-102209122D01*
X159432336Y-102209120D01*
X159427830Y-102205965D01*
X159422848Y-102203642D01*
X159422843Y-102203639D01*
X159218645Y-102108420D01*
X159218644Y-102108419D01*
X159213663Y-102106097D01*
X159208355Y-102104675D01*
X159208353Y-102104674D01*
X158990723Y-102046361D01*
X158990722Y-102046361D01*
X158985408Y-102044937D01*
X158750000Y-102024341D01*
X158514592Y-102044937D01*
X158509278Y-102046361D01*
X158509277Y-102046361D01*
X158291647Y-102104674D01*
X158291645Y-102104675D01*
X158286337Y-102106097D01*
X158281357Y-102108419D01*
X158281355Y-102108420D01*
X158077152Y-102203642D01*
X158077149Y-102203644D01*
X158072171Y-102205965D01*
X157878599Y-102341505D01*
X157711505Y-102508599D01*
X157698812Y-102526727D01*
X157583213Y-102691820D01*
X157527756Y-102736149D01*
X157457137Y-102743458D01*
X157393776Y-102711428D01*
X157376787Y-102691820D01*
X157261188Y-102526727D01*
X157248495Y-102508599D01*
X157081401Y-102341505D01*
X157076893Y-102338348D01*
X157076890Y-102338346D01*
X156892339Y-102209122D01*
X156892336Y-102209120D01*
X156887830Y-102205965D01*
X156882848Y-102203642D01*
X156882843Y-102203639D01*
X156678645Y-102108420D01*
X156678644Y-102108419D01*
X156673663Y-102106097D01*
X156668355Y-102104675D01*
X156668353Y-102104674D01*
X156450723Y-102046361D01*
X156450722Y-102046361D01*
X156445408Y-102044937D01*
X156210000Y-102024341D01*
X155974592Y-102044937D01*
X155969278Y-102046361D01*
X155969277Y-102046361D01*
X155751647Y-102104674D01*
X155751645Y-102104675D01*
X155746337Y-102106097D01*
X155741357Y-102108419D01*
X155741355Y-102108420D01*
X155537152Y-102203642D01*
X155537149Y-102203644D01*
X155532171Y-102205965D01*
X155338599Y-102341505D01*
X155171505Y-102508599D01*
X155048803Y-102683836D01*
X155046121Y-102687667D01*
X154990664Y-102731995D01*
X154920045Y-102739304D01*
X154856684Y-102707273D01*
X154837116Y-102683836D01*
X154752427Y-102552926D01*
X154746136Y-102544757D01*
X154602806Y-102387240D01*
X154595273Y-102380215D01*
X154428139Y-102248222D01*
X154419552Y-102242517D01*
X154233117Y-102139599D01*
X154223705Y-102135369D01*
X154022959Y-102064280D01*
X154012988Y-102061646D01*
X153987837Y-102057166D01*
X153974541Y-102058626D01*
X153970000Y-102073184D01*
X153970000Y-104689755D01*
X153369982Y-104689755D01*
X153370000Y-104689704D01*
X153370000Y-102070141D01*
X153366082Y-102056798D01*
X153353500Y-102055047D01*
X153349290Y-102056050D01*
X153146868Y-102122212D01*
X153137359Y-102126209D01*
X152948463Y-102224542D01*
X152939738Y-102230036D01*
X152769433Y-102357905D01*
X152761726Y-102364748D01*
X152614590Y-102518717D01*
X152608104Y-102526727D01*
X152500168Y-102684955D01*
X152445257Y-102729958D01*
X152374732Y-102738129D01*
X152310985Y-102706875D01*
X152292867Y-102686222D01*
X152291980Y-102684955D01*
X152168495Y-102508599D01*
X152001401Y-102341505D01*
X151996893Y-102338348D01*
X151996890Y-102338346D01*
X151812339Y-102209122D01*
X151812336Y-102209120D01*
X151807830Y-102205965D01*
X151802848Y-102203642D01*
X151802843Y-102203639D01*
X151598645Y-102108420D01*
X151598644Y-102108419D01*
X151593663Y-102106097D01*
X151588355Y-102104675D01*
X151588353Y-102104674D01*
X151370723Y-102046361D01*
X151370722Y-102046361D01*
X151365408Y-102044937D01*
X151130000Y-102024341D01*
X150894592Y-102044937D01*
X150889278Y-102046361D01*
X150889277Y-102046361D01*
X150671647Y-102104674D01*
X150671645Y-102104675D01*
X150666337Y-102106097D01*
X150661357Y-102108419D01*
X150661355Y-102108420D01*
X150457152Y-102203642D01*
X150457149Y-102203644D01*
X150452171Y-102205965D01*
X150258599Y-102341505D01*
X150091505Y-102508599D01*
X150078812Y-102526727D01*
X149963213Y-102691820D01*
X149907756Y-102736149D01*
X149837137Y-102743458D01*
X149773776Y-102711428D01*
X149756787Y-102691820D01*
X149641188Y-102526727D01*
X149628495Y-102508599D01*
X149461401Y-102341505D01*
X149456893Y-102338348D01*
X149456890Y-102338346D01*
X149272339Y-102209122D01*
X149272336Y-102209120D01*
X149267830Y-102205965D01*
X149262848Y-102203642D01*
X149262843Y-102203639D01*
X149058645Y-102108420D01*
X149058644Y-102108419D01*
X149053663Y-102106097D01*
X149048355Y-102104675D01*
X149048353Y-102104674D01*
X148830723Y-102046361D01*
X148830722Y-102046361D01*
X148825408Y-102044937D01*
X148590000Y-102024341D01*
X148354592Y-102044937D01*
X148349278Y-102046361D01*
X148349277Y-102046361D01*
X148131647Y-102104674D01*
X148131645Y-102104675D01*
X148126337Y-102106097D01*
X148121357Y-102108419D01*
X148121355Y-102108420D01*
X147917152Y-102203642D01*
X147917149Y-102203644D01*
X147912171Y-102205965D01*
X147718599Y-102341505D01*
X147551505Y-102508599D01*
X147538812Y-102526727D01*
X147423213Y-102691820D01*
X147367756Y-102736149D01*
X147297137Y-102743458D01*
X147233776Y-102711428D01*
X147216787Y-102691820D01*
X147101188Y-102526727D01*
X147088495Y-102508599D01*
X146921401Y-102341505D01*
X146916893Y-102338348D01*
X146916890Y-102338346D01*
X146732339Y-102209122D01*
X146732336Y-102209120D01*
X146727830Y-102205965D01*
X146722848Y-102203642D01*
X146722843Y-102203639D01*
X146518645Y-102108420D01*
X146518644Y-102108419D01*
X146513663Y-102106097D01*
X146508355Y-102104675D01*
X146508353Y-102104674D01*
X146290723Y-102046361D01*
X146290722Y-102046361D01*
X146285408Y-102044937D01*
X146050000Y-102024341D01*
X145814592Y-102044937D01*
X145809278Y-102046361D01*
X145809277Y-102046361D01*
X145591647Y-102104674D01*
X145591645Y-102104675D01*
X145586337Y-102106097D01*
X145581357Y-102108419D01*
X145581355Y-102108420D01*
X145377152Y-102203642D01*
X145377149Y-102203644D01*
X145372171Y-102205965D01*
X145178599Y-102341505D01*
X145011505Y-102508599D01*
X144998812Y-102526727D01*
X144883213Y-102691820D01*
X144827756Y-102736149D01*
X144757137Y-102743458D01*
X144693776Y-102711428D01*
X144676787Y-102691820D01*
X144561188Y-102526727D01*
X144548495Y-102508599D01*
X144381401Y-102341505D01*
X144376893Y-102338348D01*
X144376890Y-102338346D01*
X144192339Y-102209122D01*
X144192336Y-102209120D01*
X144187830Y-102205965D01*
X144182848Y-102203642D01*
X144182843Y-102203639D01*
X143978645Y-102108420D01*
X143978644Y-102108419D01*
X143973663Y-102106097D01*
X143968355Y-102104675D01*
X143968353Y-102104674D01*
X143750723Y-102046361D01*
X143750722Y-102046361D01*
X143745408Y-102044937D01*
X143510000Y-102024341D01*
X143274592Y-102044937D01*
X143269278Y-102046361D01*
X143269277Y-102046361D01*
X143051647Y-102104674D01*
X143051645Y-102104675D01*
X143046337Y-102106097D01*
X143041357Y-102108419D01*
X143041355Y-102108420D01*
X142837152Y-102203642D01*
X142837149Y-102203644D01*
X142832171Y-102205965D01*
X142638599Y-102341505D01*
X142518989Y-102461115D01*
X142456677Y-102495141D01*
X142385862Y-102490076D01*
X142329026Y-102447529D01*
X142311912Y-102416248D01*
X142266677Y-102295581D01*
X142266676Y-102295580D01*
X142263526Y-102287176D01*
X142258146Y-102279997D01*
X142258144Y-102279994D01*
X142182928Y-102179635D01*
X142177546Y-102172454D01*
X142110509Y-102122212D01*
X142070006Y-102091856D01*
X142070003Y-102091854D01*
X142062824Y-102086474D01*
X141955821Y-102046361D01*
X141935975Y-102038921D01*
X141935973Y-102038921D01*
X141928580Y-102036149D01*
X141920730Y-102035296D01*
X141920729Y-102035296D01*
X141870774Y-102029869D01*
X141870773Y-102029869D01*
X141867377Y-102029500D01*
X140970132Y-102029500D01*
X140072624Y-102029501D01*
X140069230Y-102029870D01*
X140069224Y-102029870D01*
X140019278Y-102035295D01*
X140019274Y-102035296D01*
X140011420Y-102036149D01*
X139877176Y-102086474D01*
X139869997Y-102091854D01*
X139869994Y-102091856D01*
X139829491Y-102122212D01*
X139762454Y-102172454D01*
X139757072Y-102179635D01*
X139681856Y-102279994D01*
X139681854Y-102279997D01*
X139676474Y-102287176D01*
X139626149Y-102421420D01*
X139625296Y-102429270D01*
X139625296Y-102429271D01*
X139621837Y-102461115D01*
X139619500Y-102482623D01*
X134620000Y-102482623D01*
X134620000Y-99326522D01*
X194400801Y-99326522D01*
X194439092Y-99469423D01*
X194442842Y-99479727D01*
X194527521Y-99661323D01*
X194532998Y-99670811D01*
X194647925Y-99834942D01*
X194654981Y-99843350D01*
X194796650Y-99985019D01*
X194805058Y-99992075D01*
X194969189Y-100107002D01*
X194978677Y-100112479D01*
X195160273Y-100197158D01*
X195170577Y-100200908D01*
X195308503Y-100237866D01*
X195322599Y-100237530D01*
X195326000Y-100229588D01*
X195326000Y-100224439D01*
X195834000Y-100224439D01*
X195837973Y-100237970D01*
X195846522Y-100239199D01*
X195989423Y-100200908D01*
X195999727Y-100197158D01*
X196181323Y-100112479D01*
X196190811Y-100107002D01*
X196354942Y-99992075D01*
X196363350Y-99985019D01*
X196505019Y-99843350D01*
X196512075Y-99834942D01*
X196627002Y-99670811D01*
X196632479Y-99661323D01*
X196717158Y-99479727D01*
X196720908Y-99469423D01*
X196757866Y-99331497D01*
X196757530Y-99317401D01*
X196749588Y-99314000D01*
X195852115Y-99314000D01*
X195836876Y-99318475D01*
X195835671Y-99319865D01*
X195834000Y-99327548D01*
X195834000Y-100224439D01*
X195326000Y-100224439D01*
X195326000Y-99332115D01*
X195321525Y-99316876D01*
X195320135Y-99315671D01*
X195312452Y-99314000D01*
X194415561Y-99314000D01*
X194402030Y-99317973D01*
X194400801Y-99326522D01*
X134620000Y-99326522D01*
X134620000Y-98788503D01*
X194402134Y-98788503D01*
X194402470Y-98802599D01*
X194410412Y-98806000D01*
X195307885Y-98806000D01*
X195323124Y-98801525D01*
X195324329Y-98800135D01*
X195326000Y-98792452D01*
X195326000Y-98787885D01*
X195834000Y-98787885D01*
X195838475Y-98803124D01*
X195839865Y-98804329D01*
X195847548Y-98806000D01*
X196744439Y-98806000D01*
X196757970Y-98802027D01*
X196759199Y-98793478D01*
X196720908Y-98650577D01*
X196717158Y-98640273D01*
X196632479Y-98458677D01*
X196627002Y-98449189D01*
X196512075Y-98285058D01*
X196505019Y-98276650D01*
X196363350Y-98134981D01*
X196354942Y-98127925D01*
X196190811Y-98012998D01*
X196181323Y-98007521D01*
X195999727Y-97922842D01*
X195989423Y-97919092D01*
X195851497Y-97882134D01*
X195837401Y-97882470D01*
X195834000Y-97890412D01*
X195834000Y-98787885D01*
X195326000Y-98787885D01*
X195326000Y-97895561D01*
X195322027Y-97882030D01*
X195313478Y-97880801D01*
X195170577Y-97919092D01*
X195160273Y-97922842D01*
X194978677Y-98007521D01*
X194969189Y-98012998D01*
X194805058Y-98127925D01*
X194796650Y-98134981D01*
X194654981Y-98276650D01*
X194647925Y-98285058D01*
X194532998Y-98449189D01*
X194527521Y-98458677D01*
X194442842Y-98640273D01*
X194439092Y-98650577D01*
X194402134Y-98788503D01*
X134620000Y-98788503D01*
X134620000Y-59302623D01*
X137079500Y-59302623D01*
X137079501Y-61097376D01*
X137086149Y-61158580D01*
X137136474Y-61292824D01*
X137141854Y-61300003D01*
X137141856Y-61300006D01*
X137198273Y-61375282D01*
X137222454Y-61407546D01*
X137229635Y-61412928D01*
X137329994Y-61488144D01*
X137329997Y-61488146D01*
X137337176Y-61493526D01*
X137407474Y-61519879D01*
X137464025Y-61541079D01*
X137464027Y-61541079D01*
X137471420Y-61543851D01*
X137479270Y-61544704D01*
X137479271Y-61544704D01*
X137529217Y-61550130D01*
X137532623Y-61550500D01*
X138429868Y-61550500D01*
X139327376Y-61550499D01*
X139330770Y-61550130D01*
X139330776Y-61550130D01*
X139380722Y-61544705D01*
X139380726Y-61544704D01*
X139388580Y-61543851D01*
X139522824Y-61493526D01*
X139530003Y-61488146D01*
X139530006Y-61488144D01*
X139630365Y-61412928D01*
X139637546Y-61407546D01*
X139661727Y-61375282D01*
X139718144Y-61300006D01*
X139718146Y-61300003D01*
X139723526Y-61292824D01*
X139740384Y-61247856D01*
X139769695Y-61169667D01*
X139771912Y-61163752D01*
X139814553Y-61106987D01*
X139881114Y-61082286D01*
X139950463Y-61097493D01*
X139978989Y-61118885D01*
X140098599Y-61238495D01*
X140103107Y-61241652D01*
X140103110Y-61241654D01*
X140284102Y-61368386D01*
X140292170Y-61374035D01*
X140297152Y-61376358D01*
X140297157Y-61376361D01*
X140501012Y-61471420D01*
X140506337Y-61473903D01*
X140511645Y-61475325D01*
X140511647Y-61475326D01*
X140729277Y-61533639D01*
X140734592Y-61535063D01*
X140970000Y-61555659D01*
X141205408Y-61535063D01*
X141210723Y-61533639D01*
X141428353Y-61475326D01*
X141428355Y-61475325D01*
X141433663Y-61473903D01*
X141438988Y-61471420D01*
X141642843Y-61376361D01*
X141642848Y-61376358D01*
X141647830Y-61374035D01*
X141655898Y-61368386D01*
X141836890Y-61241654D01*
X141836893Y-61241652D01*
X141841401Y-61238495D01*
X142008495Y-61071401D01*
X142136787Y-60888180D01*
X142192244Y-60843851D01*
X142262863Y-60836542D01*
X142326224Y-60868572D01*
X142343212Y-60888179D01*
X142471505Y-61071401D01*
X142638599Y-61238495D01*
X142643107Y-61241652D01*
X142643110Y-61241654D01*
X142824102Y-61368386D01*
X142832170Y-61374035D01*
X142837152Y-61376358D01*
X142837157Y-61376361D01*
X143041012Y-61471420D01*
X143046337Y-61473903D01*
X143051645Y-61475325D01*
X143051647Y-61475326D01*
X143269277Y-61533639D01*
X143274592Y-61535063D01*
X143510000Y-61555659D01*
X143745408Y-61535063D01*
X143750723Y-61533639D01*
X143968353Y-61475326D01*
X143968355Y-61475325D01*
X143973663Y-61473903D01*
X143978988Y-61471420D01*
X144182843Y-61376361D01*
X144182848Y-61376358D01*
X144187830Y-61374035D01*
X144195898Y-61368386D01*
X144376890Y-61241654D01*
X144376893Y-61241652D01*
X144381401Y-61238495D01*
X144548495Y-61071401D01*
X144676787Y-60888180D01*
X144732244Y-60843851D01*
X144802863Y-60836542D01*
X144866224Y-60868572D01*
X144883212Y-60888179D01*
X145011505Y-61071401D01*
X145178599Y-61238495D01*
X145183107Y-61241652D01*
X145183110Y-61241654D01*
X145364102Y-61368386D01*
X145372170Y-61374035D01*
X145377152Y-61376358D01*
X145377157Y-61376361D01*
X145581012Y-61471420D01*
X145586337Y-61473903D01*
X145591645Y-61475325D01*
X145591647Y-61475326D01*
X145809277Y-61533639D01*
X145814592Y-61535063D01*
X146050000Y-61555659D01*
X146285408Y-61535063D01*
X146303468Y-61530224D01*
X146384760Y-61508443D01*
X146455736Y-61510133D01*
X146506465Y-61541055D01*
X162918247Y-77952838D01*
X162925636Y-77960958D01*
X162929703Y-77967366D01*
X162935481Y-77972792D01*
X162978696Y-78013374D01*
X162981538Y-78016129D01*
X163001018Y-78035609D01*
X163004148Y-78038037D01*
X163004230Y-78038109D01*
X163013138Y-78045718D01*
X163044907Y-78075551D01*
X163051854Y-78079370D01*
X163062321Y-78085124D01*
X163078850Y-78095981D01*
X163094553Y-78108162D01*
X163101828Y-78111310D01*
X163134547Y-78125469D01*
X163145207Y-78130691D01*
X163183397Y-78151686D01*
X163202653Y-78156630D01*
X163221342Y-78163029D01*
X163239593Y-78170927D01*
X163282648Y-78177746D01*
X163294252Y-78180149D01*
X163336470Y-78190989D01*
X163356345Y-78190989D01*
X163376055Y-78192540D01*
X163395685Y-78195649D01*
X163403577Y-78194903D01*
X163439068Y-78191548D01*
X163450926Y-78190989D01*
X178854209Y-78190989D01*
X178922330Y-78210991D01*
X178943304Y-78227894D01*
X199442149Y-98726740D01*
X199476175Y-98789052D01*
X199478181Y-98830642D01*
X199454770Y-99028440D01*
X199469200Y-99248604D01*
X199470621Y-99254200D01*
X199470622Y-99254205D01*
X199522090Y-99456857D01*
X199523511Y-99462452D01*
X199525928Y-99467694D01*
X199525928Y-99467695D01*
X199564046Y-99550379D01*
X199615883Y-99662821D01*
X199743222Y-99843002D01*
X199901264Y-99996961D01*
X199906060Y-100000166D01*
X199906063Y-100000168D01*
X199990261Y-100056427D01*
X200084717Y-100119540D01*
X200090020Y-100121818D01*
X200090023Y-100121820D01*
X200274106Y-100200908D01*
X200287436Y-100206635D01*
X200366118Y-100224439D01*
X200496995Y-100254054D01*
X200497001Y-100254055D01*
X200502632Y-100255329D01*
X200508403Y-100255556D01*
X200508405Y-100255556D01*
X200576211Y-100258220D01*
X200723098Y-100263991D01*
X200832275Y-100248161D01*
X200935738Y-100233160D01*
X200935743Y-100233159D01*
X200941452Y-100232331D01*
X200946916Y-100230476D01*
X200946921Y-100230475D01*
X201144907Y-100163268D01*
X201144912Y-100163266D01*
X201150379Y-100161410D01*
X201342884Y-100053602D01*
X201512518Y-99912518D01*
X201653602Y-99742884D01*
X201761410Y-99550379D01*
X201763266Y-99544912D01*
X201763268Y-99544907D01*
X201830475Y-99346921D01*
X201830476Y-99346916D01*
X201832331Y-99341452D01*
X201833159Y-99335743D01*
X201833160Y-99335738D01*
X201863458Y-99126772D01*
X201863991Y-99123098D01*
X201865643Y-99060000D01*
X201845454Y-98840289D01*
X201834825Y-98802599D01*
X201787134Y-98633500D01*
X201785565Y-98627936D01*
X201687980Y-98430053D01*
X201555967Y-98253267D01*
X201393949Y-98103499D01*
X201207350Y-97985764D01*
X201002421Y-97904006D01*
X200996761Y-97902880D01*
X200996757Y-97902879D01*
X200791691Y-97862089D01*
X200791688Y-97862089D01*
X200786024Y-97860962D01*
X200780249Y-97860886D01*
X200780245Y-97860886D01*
X200667266Y-97859407D01*
X200565406Y-97858074D01*
X200439623Y-97879687D01*
X200369101Y-97871510D01*
X200329192Y-97844602D01*
X184032557Y-81547966D01*
X196788257Y-81547966D01*
X196818565Y-81682446D01*
X196821645Y-81692275D01*
X196901770Y-81889603D01*
X196906413Y-81898794D01*
X197017694Y-82080388D01*
X197023777Y-82088699D01*
X197163213Y-82249667D01*
X197170580Y-82256883D01*
X197334434Y-82392916D01*
X197342881Y-82398831D01*
X197526756Y-82506279D01*
X197536042Y-82510729D01*
X197735001Y-82586703D01*
X197744899Y-82589579D01*
X197848250Y-82610606D01*
X197862299Y-82609410D01*
X197866000Y-82599065D01*
X197866000Y-82598517D01*
X198374000Y-82598517D01*
X198378064Y-82612359D01*
X198391478Y-82614393D01*
X198398184Y-82613534D01*
X198408262Y-82611392D01*
X198612255Y-82550191D01*
X198621842Y-82546433D01*
X198813095Y-82452739D01*
X198821945Y-82447464D01*
X198995328Y-82323792D01*
X199003200Y-82317139D01*
X199154052Y-82166812D01*
X199160730Y-82158965D01*
X199285003Y-81986020D01*
X199290313Y-81977183D01*
X199384670Y-81786267D01*
X199388469Y-81776672D01*
X199450377Y-81572910D01*
X199452555Y-81562837D01*
X199453986Y-81551962D01*
X199451775Y-81537778D01*
X199438617Y-81534000D01*
X198392115Y-81534000D01*
X198376876Y-81538475D01*
X198375671Y-81539865D01*
X198374000Y-81547548D01*
X198374000Y-82598517D01*
X197866000Y-82598517D01*
X197866000Y-81552115D01*
X197861525Y-81536876D01*
X197860135Y-81535671D01*
X197852452Y-81534000D01*
X196803225Y-81534000D01*
X196789694Y-81537973D01*
X196788257Y-81547966D01*
X184032557Y-81547966D01*
X180327214Y-77842623D01*
X196769500Y-77842623D01*
X196769501Y-79637376D01*
X196776149Y-79698580D01*
X196826474Y-79832824D01*
X196831854Y-79840003D01*
X196831856Y-79840006D01*
X196907072Y-79940365D01*
X196912454Y-79947546D01*
X196919635Y-79952928D01*
X197019994Y-80028144D01*
X197019997Y-80028146D01*
X197027176Y-80033526D01*
X197110845Y-80064892D01*
X197146972Y-80078435D01*
X197203737Y-80121076D01*
X197228437Y-80187638D01*
X197213230Y-80256986D01*
X197193837Y-80283468D01*
X197064590Y-80418717D01*
X197058104Y-80426727D01*
X196938098Y-80602649D01*
X196933000Y-80611623D01*
X196843338Y-80804783D01*
X196839775Y-80814470D01*
X196784389Y-81014183D01*
X196785912Y-81022607D01*
X196798292Y-81026000D01*
X199438344Y-81026000D01*
X199451875Y-81022027D01*
X199453180Y-81012947D01*
X199411214Y-80845875D01*
X199407894Y-80836124D01*
X199322972Y-80640814D01*
X199318105Y-80631739D01*
X199202426Y-80452926D01*
X199196136Y-80444757D01*
X199049328Y-80283418D01*
X199050287Y-80282545D01*
X199017215Y-80226694D01*
X199019811Y-80155745D01*
X199060353Y-80097462D01*
X199095100Y-80077658D01*
X199212824Y-80033526D01*
X199220003Y-80028146D01*
X199220006Y-80028144D01*
X199320365Y-79952928D01*
X199327546Y-79947546D01*
X199332928Y-79940365D01*
X199408144Y-79840006D01*
X199408146Y-79840003D01*
X199413526Y-79832824D01*
X199463851Y-79698580D01*
X199470500Y-79637377D01*
X199470499Y-77842624D01*
X199463851Y-77781420D01*
X199413526Y-77647176D01*
X199408146Y-77639997D01*
X199408144Y-77639994D01*
X199332928Y-77539635D01*
X199327546Y-77532454D01*
X199320365Y-77527072D01*
X199220006Y-77451856D01*
X199220003Y-77451854D01*
X199212824Y-77446474D01*
X199123439Y-77412966D01*
X199085975Y-77398921D01*
X199085973Y-77398921D01*
X199078580Y-77396149D01*
X199070730Y-77395296D01*
X199070729Y-77395296D01*
X199020774Y-77389869D01*
X199020773Y-77389869D01*
X199017377Y-77389500D01*
X198120132Y-77389500D01*
X197222624Y-77389501D01*
X197219230Y-77389870D01*
X197219224Y-77389870D01*
X197169278Y-77395295D01*
X197169274Y-77395296D01*
X197161420Y-77396149D01*
X197027176Y-77446474D01*
X197019997Y-77451854D01*
X197019994Y-77451856D01*
X196919635Y-77527072D01*
X196912454Y-77532454D01*
X196907072Y-77539635D01*
X196831856Y-77639994D01*
X196831854Y-77639997D01*
X196826474Y-77647176D01*
X196776149Y-77781420D01*
X196769500Y-77842623D01*
X180327214Y-77842623D01*
X179662731Y-77178140D01*
X179655342Y-77170020D01*
X179651275Y-77163612D01*
X179602282Y-77117604D01*
X179599440Y-77114849D01*
X179579960Y-77095369D01*
X179576830Y-77092941D01*
X179576748Y-77092869D01*
X179567840Y-77085260D01*
X179536071Y-77055427D01*
X179518656Y-77045853D01*
X179502127Y-77034996D01*
X179492689Y-77027675D01*
X179486425Y-77022816D01*
X179446431Y-77005509D01*
X179435771Y-77000287D01*
X179430530Y-76997406D01*
X179397581Y-76979292D01*
X179378325Y-76974348D01*
X179359636Y-76967949D01*
X179341385Y-76960051D01*
X179298330Y-76953232D01*
X179286726Y-76950829D01*
X179244508Y-76939989D01*
X179224633Y-76939989D01*
X179204923Y-76938438D01*
X179193122Y-76936569D01*
X179185293Y-76935329D01*
X179177401Y-76936075D01*
X179141910Y-76939430D01*
X179130052Y-76939989D01*
X163726769Y-76939989D01*
X163658648Y-76919987D01*
X163637674Y-76903084D01*
X148504866Y-61770275D01*
X148470840Y-61707963D01*
X148475905Y-61637148D01*
X148518452Y-61580312D01*
X148584972Y-61555501D01*
X148587260Y-61555419D01*
X148590000Y-61555659D01*
X148825408Y-61535063D01*
X148830723Y-61533639D01*
X149048353Y-61475326D01*
X149048355Y-61475325D01*
X149053663Y-61473903D01*
X149058988Y-61471420D01*
X149262843Y-61376361D01*
X149262848Y-61376358D01*
X149267830Y-61374035D01*
X149275898Y-61368386D01*
X149456890Y-61241654D01*
X149456893Y-61241652D01*
X149461401Y-61238495D01*
X149628495Y-61071401D01*
X149756787Y-60888180D01*
X149812244Y-60843851D01*
X149882863Y-60836542D01*
X149946224Y-60868572D01*
X149963212Y-60888179D01*
X150091505Y-61071401D01*
X150258599Y-61238495D01*
X150263107Y-61241652D01*
X150263110Y-61241654D01*
X150444102Y-61368386D01*
X150452170Y-61374035D01*
X150457152Y-61376358D01*
X150457157Y-61376361D01*
X150661012Y-61471420D01*
X150666337Y-61473903D01*
X150671645Y-61475325D01*
X150671647Y-61475326D01*
X150889277Y-61533639D01*
X150894592Y-61535063D01*
X151130000Y-61555659D01*
X151365408Y-61535063D01*
X151370723Y-61533639D01*
X151588353Y-61475326D01*
X151588355Y-61475325D01*
X151593663Y-61473903D01*
X151598988Y-61471420D01*
X151802843Y-61376361D01*
X151802848Y-61376358D01*
X151807830Y-61374035D01*
X151815898Y-61368386D01*
X151996890Y-61241654D01*
X151996893Y-61241652D01*
X152001401Y-61238495D01*
X152168495Y-61071401D01*
X152296787Y-60888180D01*
X152352244Y-60843851D01*
X152422863Y-60836542D01*
X152486224Y-60868572D01*
X152503212Y-60888179D01*
X152631505Y-61071401D01*
X152798599Y-61238495D01*
X152803107Y-61241652D01*
X152803110Y-61241654D01*
X152984102Y-61368386D01*
X152992170Y-61374035D01*
X152997152Y-61376358D01*
X152997157Y-61376361D01*
X153201012Y-61471420D01*
X153206337Y-61473903D01*
X153211645Y-61475325D01*
X153211647Y-61475326D01*
X153429277Y-61533639D01*
X153434592Y-61535063D01*
X153670000Y-61555659D01*
X153905408Y-61535063D01*
X153910723Y-61533639D01*
X154128353Y-61475326D01*
X154128355Y-61475325D01*
X154133663Y-61473903D01*
X154138988Y-61471420D01*
X154342843Y-61376361D01*
X154342848Y-61376358D01*
X154347830Y-61374035D01*
X154355898Y-61368386D01*
X154536890Y-61241654D01*
X154536893Y-61241652D01*
X154541401Y-61238495D01*
X154708495Y-61071401D01*
X154836787Y-60888180D01*
X154892244Y-60843851D01*
X154962863Y-60836542D01*
X155026224Y-60868572D01*
X155043212Y-60888179D01*
X155171505Y-61071401D01*
X155338599Y-61238495D01*
X155343107Y-61241652D01*
X155343110Y-61241654D01*
X155524102Y-61368386D01*
X155532170Y-61374035D01*
X155537152Y-61376358D01*
X155537157Y-61376361D01*
X155741012Y-61471420D01*
X155746337Y-61473903D01*
X155751645Y-61475325D01*
X155751647Y-61475326D01*
X155969277Y-61533639D01*
X155974592Y-61535063D01*
X156210000Y-61555659D01*
X156445408Y-61535063D01*
X156450723Y-61533639D01*
X156668353Y-61475326D01*
X156668355Y-61475325D01*
X156673663Y-61473903D01*
X156678988Y-61471420D01*
X156882843Y-61376361D01*
X156882848Y-61376358D01*
X156887830Y-61374035D01*
X156895898Y-61368386D01*
X157076890Y-61241654D01*
X157076893Y-61241652D01*
X157081401Y-61238495D01*
X157248495Y-61071401D01*
X157376787Y-60888180D01*
X157432244Y-60843851D01*
X157502863Y-60836542D01*
X157566224Y-60868572D01*
X157583212Y-60888179D01*
X157711505Y-61071401D01*
X157878599Y-61238495D01*
X157883107Y-61241652D01*
X157883110Y-61241654D01*
X158064102Y-61368386D01*
X158072170Y-61374035D01*
X158077152Y-61376358D01*
X158077157Y-61376361D01*
X158281012Y-61471420D01*
X158286337Y-61473903D01*
X158291645Y-61475325D01*
X158291647Y-61475326D01*
X158509277Y-61533639D01*
X158514592Y-61535063D01*
X158750000Y-61555659D01*
X158985408Y-61535063D01*
X158990723Y-61533639D01*
X159208353Y-61475326D01*
X159208355Y-61475325D01*
X159213663Y-61473903D01*
X159218988Y-61471420D01*
X159422843Y-61376361D01*
X159422848Y-61376358D01*
X159427830Y-61374035D01*
X159435898Y-61368386D01*
X159616890Y-61241654D01*
X159616893Y-61241652D01*
X159621401Y-61238495D01*
X159788495Y-61071401D01*
X159916787Y-60888180D01*
X159972244Y-60843851D01*
X160042863Y-60836542D01*
X160106224Y-60868572D01*
X160123212Y-60888179D01*
X160251505Y-61071401D01*
X160418599Y-61238495D01*
X160423107Y-61241652D01*
X160423110Y-61241654D01*
X160496189Y-61292824D01*
X160610772Y-61373056D01*
X160655099Y-61428512D01*
X160664500Y-61476268D01*
X160664500Y-62152297D01*
X160663983Y-62163257D01*
X160662327Y-62170667D01*
X160662576Y-62178593D01*
X160662576Y-62178594D01*
X160664438Y-62237841D01*
X160664500Y-62241799D01*
X160664500Y-62269350D01*
X160664996Y-62273273D01*
X160665003Y-62273388D01*
X160665923Y-62285068D01*
X160667291Y-62328627D01*
X160670908Y-62341076D01*
X160672836Y-62347712D01*
X160676844Y-62367062D01*
X160679336Y-62386792D01*
X160695384Y-62427323D01*
X160699219Y-62438524D01*
X160711382Y-62480390D01*
X160721498Y-62497494D01*
X160730195Y-62515245D01*
X160737514Y-62533732D01*
X160763129Y-62568988D01*
X160769646Y-62578910D01*
X160787790Y-62609590D01*
X160787793Y-62609594D01*
X160791830Y-62616420D01*
X160805880Y-62630470D01*
X160818721Y-62645504D01*
X160830406Y-62661587D01*
X160836514Y-62666640D01*
X160863989Y-62689369D01*
X160872769Y-62697359D01*
X167142758Y-68967349D01*
X167150147Y-68975469D01*
X167154214Y-68981877D01*
X167159992Y-68987303D01*
X167203207Y-69027885D01*
X167206049Y-69030640D01*
X167225529Y-69050120D01*
X167228659Y-69052548D01*
X167228741Y-69052620D01*
X167237649Y-69060229D01*
X167269418Y-69090062D01*
X167276365Y-69093881D01*
X167286832Y-69099635D01*
X167303361Y-69110492D01*
X167319064Y-69122673D01*
X167359057Y-69139979D01*
X167369713Y-69145200D01*
X167400955Y-69162376D01*
X167400964Y-69162380D01*
X167407908Y-69166197D01*
X167415584Y-69168168D01*
X167415587Y-69168169D01*
X167427160Y-69171140D01*
X167445865Y-69177544D01*
X167464104Y-69185437D01*
X167507148Y-69192254D01*
X167518771Y-69194662D01*
X167553304Y-69203529D01*
X167553305Y-69203529D01*
X167560981Y-69205500D01*
X167580856Y-69205500D01*
X167600566Y-69207051D01*
X167620196Y-69210160D01*
X167663580Y-69206059D01*
X167675437Y-69205500D01*
X196843733Y-69205500D01*
X196911854Y-69225502D01*
X196946946Y-69259230D01*
X197081505Y-69451401D01*
X197248599Y-69618495D01*
X197253107Y-69621652D01*
X197253110Y-69621654D01*
X197437661Y-69750878D01*
X197442170Y-69754035D01*
X197447152Y-69756358D01*
X197447157Y-69756361D01*
X197651355Y-69851580D01*
X197656337Y-69853903D01*
X197661645Y-69855325D01*
X197661647Y-69855326D01*
X197879277Y-69913639D01*
X197884592Y-69915063D01*
X198120000Y-69935659D01*
X198355408Y-69915063D01*
X198360723Y-69913639D01*
X198578353Y-69855326D01*
X198578355Y-69855325D01*
X198583663Y-69853903D01*
X198588645Y-69851580D01*
X198792843Y-69756361D01*
X198792848Y-69756358D01*
X198797830Y-69754035D01*
X198802339Y-69750878D01*
X198986890Y-69621654D01*
X198986893Y-69621652D01*
X198991401Y-69618495D01*
X199158495Y-69451401D01*
X199294035Y-69257829D01*
X199309110Y-69225502D01*
X199391580Y-69048645D01*
X199391581Y-69048643D01*
X199393903Y-69043663D01*
X199397393Y-69030640D01*
X199453639Y-68820723D01*
X199453639Y-68820722D01*
X199455063Y-68815408D01*
X199475659Y-68580000D01*
X199455063Y-68344592D01*
X199393903Y-68116337D01*
X199314053Y-67945099D01*
X199296358Y-67907152D01*
X199296356Y-67907149D01*
X199294035Y-67902171D01*
X199158495Y-67708599D01*
X198991401Y-67541505D01*
X198986893Y-67538348D01*
X198986890Y-67538346D01*
X198859408Y-67449082D01*
X198808181Y-67413213D01*
X198763853Y-67357756D01*
X198756544Y-67287137D01*
X198788575Y-67223776D01*
X198808181Y-67206787D01*
X198986890Y-67081654D01*
X198986893Y-67081652D01*
X198991401Y-67078495D01*
X199158495Y-66911401D01*
X199294035Y-66717829D01*
X199309110Y-66685502D01*
X199391580Y-66508645D01*
X199391581Y-66508643D01*
X199393903Y-66503663D01*
X199398127Y-66487901D01*
X199453639Y-66280723D01*
X199453639Y-66280722D01*
X199455063Y-66275408D01*
X199475659Y-66040000D01*
X199455063Y-65804592D01*
X199393903Y-65576337D01*
X199314053Y-65405099D01*
X199296358Y-65367152D01*
X199296356Y-65367149D01*
X199294035Y-65362171D01*
X199158495Y-65168599D01*
X198991401Y-65001505D01*
X198986893Y-64998348D01*
X198986890Y-64998346D01*
X198815336Y-64878223D01*
X198771008Y-64822766D01*
X198763699Y-64752147D01*
X198795730Y-64688786D01*
X198818019Y-64670860D01*
X198817737Y-64670465D01*
X198995328Y-64543792D01*
X199003200Y-64537139D01*
X199154052Y-64386812D01*
X199160730Y-64378965D01*
X199285003Y-64206020D01*
X199290313Y-64197183D01*
X199384670Y-64006267D01*
X199388469Y-63996672D01*
X199450377Y-63792910D01*
X199452555Y-63782837D01*
X199453986Y-63771962D01*
X199451775Y-63757778D01*
X199438617Y-63754000D01*
X196803225Y-63754000D01*
X196789694Y-63757973D01*
X196788257Y-63767966D01*
X196818565Y-63902446D01*
X196821645Y-63912275D01*
X196901770Y-64109603D01*
X196906413Y-64118794D01*
X197017694Y-64300388D01*
X197023777Y-64308699D01*
X197163213Y-64469667D01*
X197170580Y-64476883D01*
X197334434Y-64612916D01*
X197342876Y-64618828D01*
X197419612Y-64663669D01*
X197468335Y-64715308D01*
X197481406Y-64785091D01*
X197454674Y-64850863D01*
X197428312Y-64875669D01*
X197248599Y-65001505D01*
X197081505Y-65168599D01*
X197078346Y-65173111D01*
X196946946Y-65360770D01*
X196891489Y-65405099D01*
X196843733Y-65414500D01*
X175571280Y-65414500D01*
X175503159Y-65394498D01*
X175482185Y-65377595D01*
X171188264Y-61083673D01*
X169681791Y-59577200D01*
X176968747Y-59577200D01*
X176969306Y-59581444D01*
X176969306Y-59581448D01*
X176985699Y-59705969D01*
X177006129Y-59861149D01*
X177081702Y-60137398D01*
X177194068Y-60400835D01*
X177341146Y-60646585D01*
X177343830Y-60649936D01*
X177343832Y-60649938D01*
X177381273Y-60696672D01*
X177520215Y-60870100D01*
X177727962Y-61067245D01*
X177960543Y-61234371D01*
X178213653Y-61368386D01*
X178301040Y-61400365D01*
X178371854Y-61426279D01*
X178482610Y-61466810D01*
X178762436Y-61527822D01*
X178792956Y-61530224D01*
X178984597Y-61545307D01*
X178984604Y-61545307D01*
X178987053Y-61545500D01*
X179141992Y-61545500D01*
X179144128Y-61545354D01*
X179144139Y-61545354D01*
X179351460Y-61531220D01*
X179351466Y-61531219D01*
X179355737Y-61530928D01*
X179359932Y-61530059D01*
X179359934Y-61530059D01*
X179536345Y-61493526D01*
X179636186Y-61472850D01*
X179906158Y-61377248D01*
X180160658Y-61245891D01*
X180164159Y-61243430D01*
X180164163Y-61243428D01*
X180391471Y-61083673D01*
X180391477Y-61083668D01*
X180394976Y-61081209D01*
X180604776Y-60886251D01*
X180611670Y-60877829D01*
X180783461Y-60667941D01*
X180786177Y-60664623D01*
X180935820Y-60420427D01*
X180942802Y-60404522D01*
X181049214Y-60162110D01*
X181049215Y-60162106D01*
X181050938Y-60158182D01*
X181078159Y-60062623D01*
X196769500Y-60062623D01*
X196769501Y-61857376D01*
X196776149Y-61918580D01*
X196826474Y-62052824D01*
X196831854Y-62060003D01*
X196831856Y-62060006D01*
X196901025Y-62152297D01*
X196912454Y-62167546D01*
X196919635Y-62172928D01*
X197019994Y-62248144D01*
X197019997Y-62248146D01*
X197027176Y-62253526D01*
X197110845Y-62284892D01*
X197146972Y-62298435D01*
X197203737Y-62341076D01*
X197228437Y-62407638D01*
X197213230Y-62476986D01*
X197193837Y-62503468D01*
X197064590Y-62638717D01*
X197058104Y-62646727D01*
X196938098Y-62822649D01*
X196933000Y-62831623D01*
X196843338Y-63024783D01*
X196839775Y-63034470D01*
X196784389Y-63234183D01*
X196785912Y-63242607D01*
X196798292Y-63246000D01*
X199438344Y-63246000D01*
X199451875Y-63242027D01*
X199453180Y-63232947D01*
X199411214Y-63065875D01*
X199407894Y-63056124D01*
X199322972Y-62860814D01*
X199318105Y-62851739D01*
X199202426Y-62672926D01*
X199196136Y-62664757D01*
X199049328Y-62503418D01*
X199050287Y-62502545D01*
X199017215Y-62446694D01*
X199019811Y-62375745D01*
X199060353Y-62317462D01*
X199095100Y-62297658D01*
X199128668Y-62285074D01*
X199212824Y-62253526D01*
X199220003Y-62248146D01*
X199220006Y-62248144D01*
X199320365Y-62172928D01*
X199327546Y-62167546D01*
X199338975Y-62152297D01*
X199408144Y-62060006D01*
X199408146Y-62060003D01*
X199413526Y-62052824D01*
X199463851Y-61918580D01*
X199470500Y-61857377D01*
X199470499Y-60062624D01*
X199463851Y-60001420D01*
X199413526Y-59867176D01*
X199408146Y-59859997D01*
X199408144Y-59859994D01*
X199332928Y-59759635D01*
X199327546Y-59752454D01*
X199320365Y-59747072D01*
X199220006Y-59671856D01*
X199220003Y-59671854D01*
X199212824Y-59666474D01*
X199123439Y-59632966D01*
X199085975Y-59618921D01*
X199085973Y-59618921D01*
X199078580Y-59616149D01*
X199070730Y-59615296D01*
X199070729Y-59615296D01*
X199020774Y-59609869D01*
X199020773Y-59609869D01*
X199017377Y-59609500D01*
X198120132Y-59609500D01*
X197222624Y-59609501D01*
X197219230Y-59609870D01*
X197219224Y-59609870D01*
X197169278Y-59615295D01*
X197169274Y-59615296D01*
X197161420Y-59616149D01*
X197027176Y-59666474D01*
X197019997Y-59671854D01*
X197019994Y-59671856D01*
X196919635Y-59747072D01*
X196912454Y-59752454D01*
X196907072Y-59759635D01*
X196831856Y-59859994D01*
X196831854Y-59859997D01*
X196826474Y-59867176D01*
X196776149Y-60001420D01*
X196769500Y-60062623D01*
X181078159Y-60062623D01*
X181129400Y-59882739D01*
X181168235Y-59609869D01*
X181169149Y-59603448D01*
X181169149Y-59603446D01*
X181169754Y-59599196D01*
X181170549Y-59447333D01*
X181171231Y-59317086D01*
X181171231Y-59317080D01*
X181171253Y-59312800D01*
X181169914Y-59302624D01*
X181145289Y-59115580D01*
X181133871Y-59028851D01*
X181125879Y-58999635D01*
X181101462Y-58910385D01*
X181058298Y-58752602D01*
X180945932Y-58489165D01*
X180798854Y-58243415D01*
X180619785Y-58019900D01*
X180412038Y-57822755D01*
X180179457Y-57655629D01*
X179926347Y-57521614D01*
X179657390Y-57423190D01*
X179377564Y-57362178D01*
X179334389Y-57358780D01*
X179155403Y-57344693D01*
X179155396Y-57344693D01*
X179152947Y-57344500D01*
X178998008Y-57344500D01*
X178995872Y-57344646D01*
X178995861Y-57344646D01*
X178788540Y-57358780D01*
X178788534Y-57358781D01*
X178784263Y-57359072D01*
X178780068Y-57359941D01*
X178780066Y-57359941D01*
X178644039Y-57388111D01*
X178503814Y-57417150D01*
X178233842Y-57512752D01*
X177979342Y-57644109D01*
X177975841Y-57646570D01*
X177975837Y-57646572D01*
X177748529Y-57806327D01*
X177748523Y-57806332D01*
X177745024Y-57808791D01*
X177535224Y-58003749D01*
X177532510Y-58007065D01*
X177532507Y-58007068D01*
X177519256Y-58023258D01*
X177353823Y-58225377D01*
X177204180Y-58469573D01*
X177202453Y-58473507D01*
X177202452Y-58473509D01*
X177195580Y-58489165D01*
X177089062Y-58731818D01*
X177010600Y-59007261D01*
X176988648Y-59161505D01*
X176973559Y-59267529D01*
X176970246Y-59290804D01*
X176969859Y-59364757D01*
X176968833Y-59560814D01*
X176968747Y-59577200D01*
X169681791Y-59577200D01*
X166867242Y-56762651D01*
X166859853Y-56754531D01*
X166855786Y-56748123D01*
X166806793Y-56702115D01*
X166803951Y-56699360D01*
X166784471Y-56679880D01*
X166781341Y-56677452D01*
X166781259Y-56677380D01*
X166772351Y-56669771D01*
X166740582Y-56639938D01*
X166723167Y-56630364D01*
X166706638Y-56619507D01*
X166697200Y-56612186D01*
X166690936Y-56607327D01*
X166650942Y-56590020D01*
X166640282Y-56584798D01*
X166623214Y-56575415D01*
X166602092Y-56563803D01*
X166582836Y-56558859D01*
X166564147Y-56552460D01*
X166545896Y-56544562D01*
X166502841Y-56537743D01*
X166491237Y-56535340D01*
X166449019Y-56524500D01*
X166429144Y-56524500D01*
X166409434Y-56522949D01*
X166397633Y-56521080D01*
X166389804Y-56519840D01*
X166381912Y-56520586D01*
X166346421Y-56523941D01*
X166334563Y-56524500D01*
X161877698Y-56524500D01*
X161866737Y-56523983D01*
X161859332Y-56522328D01*
X161797473Y-56524272D01*
X161792176Y-56524438D01*
X161788219Y-56524500D01*
X161760650Y-56524500D01*
X161756715Y-56524997D01*
X161756605Y-56525004D01*
X161744934Y-56525922D01*
X161709296Y-56527042D01*
X161701372Y-56527291D01*
X161693759Y-56529503D01*
X161693752Y-56529504D01*
X161682282Y-56532836D01*
X161662926Y-56536845D01*
X161660866Y-56537105D01*
X161643208Y-56539336D01*
X161635842Y-56542253D01*
X161635836Y-56542254D01*
X161602683Y-56555381D01*
X161591450Y-56559227D01*
X161557220Y-56569171D01*
X161557213Y-56569174D01*
X161549610Y-56571383D01*
X161542794Y-56575414D01*
X161542791Y-56575415D01*
X161532504Y-56581499D01*
X161514752Y-56590195D01*
X161507335Y-56593132D01*
X161496268Y-56597514D01*
X161489853Y-56602175D01*
X161489849Y-56602177D01*
X161461013Y-56623127D01*
X161451094Y-56629643D01*
X161420402Y-56647794D01*
X161420397Y-56647798D01*
X161413579Y-56651830D01*
X161399526Y-56665883D01*
X161384493Y-56678723D01*
X161368413Y-56690406D01*
X161363360Y-56696514D01*
X161340635Y-56723984D01*
X161332645Y-56732764D01*
X159206464Y-58858945D01*
X159144152Y-58892971D01*
X159084759Y-58891557D01*
X158990726Y-58866362D01*
X158990727Y-58866362D01*
X158985408Y-58864937D01*
X158750000Y-58844341D01*
X158514592Y-58864937D01*
X158509278Y-58866361D01*
X158509277Y-58866361D01*
X158291647Y-58924674D01*
X158291645Y-58924675D01*
X158286337Y-58926097D01*
X158281357Y-58928419D01*
X158281355Y-58928420D01*
X158077152Y-59023642D01*
X158077149Y-59023644D01*
X158072171Y-59025965D01*
X157878599Y-59161505D01*
X157711505Y-59328599D01*
X157698812Y-59346727D01*
X157583213Y-59511820D01*
X157527756Y-59556149D01*
X157457137Y-59563458D01*
X157393776Y-59531428D01*
X157376787Y-59511820D01*
X157261188Y-59346727D01*
X157248495Y-59328599D01*
X157081401Y-59161505D01*
X157076893Y-59158348D01*
X157076890Y-59158346D01*
X156892339Y-59029122D01*
X156892336Y-59029120D01*
X156887830Y-59025965D01*
X156882848Y-59023642D01*
X156882843Y-59023639D01*
X156678645Y-58928420D01*
X156678644Y-58928419D01*
X156673663Y-58926097D01*
X156668355Y-58924675D01*
X156668353Y-58924674D01*
X156450723Y-58866361D01*
X156450722Y-58866361D01*
X156445408Y-58864937D01*
X156210000Y-58844341D01*
X155974592Y-58864937D01*
X155969278Y-58866361D01*
X155969277Y-58866361D01*
X155751647Y-58924674D01*
X155751645Y-58924675D01*
X155746337Y-58926097D01*
X155741357Y-58928419D01*
X155741355Y-58928420D01*
X155537152Y-59023642D01*
X155537149Y-59023644D01*
X155532171Y-59025965D01*
X155338599Y-59161505D01*
X155171505Y-59328599D01*
X155158812Y-59346727D01*
X155043213Y-59511820D01*
X154987756Y-59556149D01*
X154917137Y-59563458D01*
X154853776Y-59531428D01*
X154836787Y-59511820D01*
X154721188Y-59346727D01*
X154708495Y-59328599D01*
X154541401Y-59161505D01*
X154536893Y-59158348D01*
X154536890Y-59158346D01*
X154352339Y-59029122D01*
X154352336Y-59029120D01*
X154347830Y-59025965D01*
X154342848Y-59023642D01*
X154342843Y-59023639D01*
X154138645Y-58928420D01*
X154138644Y-58928419D01*
X154133663Y-58926097D01*
X154128355Y-58924675D01*
X154128353Y-58924674D01*
X153910723Y-58866361D01*
X153910722Y-58866361D01*
X153905408Y-58864937D01*
X153670000Y-58844341D01*
X153434592Y-58864937D01*
X153429278Y-58866361D01*
X153429277Y-58866361D01*
X153211647Y-58924674D01*
X153211645Y-58924675D01*
X153206337Y-58926097D01*
X153201357Y-58928419D01*
X153201355Y-58928420D01*
X152997152Y-59023642D01*
X152997149Y-59023644D01*
X152992171Y-59025965D01*
X152798599Y-59161505D01*
X152631505Y-59328599D01*
X152618812Y-59346727D01*
X152503213Y-59511820D01*
X152447756Y-59556149D01*
X152377137Y-59563458D01*
X152313776Y-59531428D01*
X152296787Y-59511820D01*
X152181188Y-59346727D01*
X152168495Y-59328599D01*
X152001401Y-59161505D01*
X151996893Y-59158348D01*
X151996890Y-59158346D01*
X151812339Y-59029122D01*
X151812336Y-59029120D01*
X151807830Y-59025965D01*
X151802848Y-59023642D01*
X151802843Y-59023639D01*
X151598645Y-58928420D01*
X151598644Y-58928419D01*
X151593663Y-58926097D01*
X151588355Y-58924675D01*
X151588353Y-58924674D01*
X151370723Y-58866361D01*
X151370722Y-58866361D01*
X151365408Y-58864937D01*
X151130000Y-58844341D01*
X150894592Y-58864937D01*
X150889278Y-58866361D01*
X150889277Y-58866361D01*
X150671647Y-58924674D01*
X150671645Y-58924675D01*
X150666337Y-58926097D01*
X150661357Y-58928419D01*
X150661355Y-58928420D01*
X150457152Y-59023642D01*
X150457149Y-59023644D01*
X150452171Y-59025965D01*
X150258599Y-59161505D01*
X150091505Y-59328599D01*
X150078812Y-59346727D01*
X149963213Y-59511820D01*
X149907756Y-59556149D01*
X149837137Y-59563458D01*
X149773776Y-59531428D01*
X149756787Y-59511820D01*
X149641188Y-59346727D01*
X149628495Y-59328599D01*
X149461401Y-59161505D01*
X149456893Y-59158348D01*
X149456890Y-59158346D01*
X149272339Y-59029122D01*
X149272336Y-59029120D01*
X149267830Y-59025965D01*
X149262848Y-59023642D01*
X149262843Y-59023639D01*
X149058645Y-58928420D01*
X149058644Y-58928419D01*
X149053663Y-58926097D01*
X149048355Y-58924675D01*
X149048353Y-58924674D01*
X148830723Y-58866361D01*
X148830722Y-58866361D01*
X148825408Y-58864937D01*
X148590000Y-58844341D01*
X148354592Y-58864937D01*
X148349278Y-58866361D01*
X148349277Y-58866361D01*
X148131647Y-58924674D01*
X148131645Y-58924675D01*
X148126337Y-58926097D01*
X148121357Y-58928419D01*
X148121355Y-58928420D01*
X147917152Y-59023642D01*
X147917149Y-59023644D01*
X147912171Y-59025965D01*
X147718599Y-59161505D01*
X147551505Y-59328599D01*
X147538812Y-59346727D01*
X147423213Y-59511820D01*
X147367756Y-59556149D01*
X147297137Y-59563458D01*
X147233776Y-59531428D01*
X147216787Y-59511820D01*
X147101188Y-59346727D01*
X147088495Y-59328599D01*
X146921401Y-59161505D01*
X146916893Y-59158348D01*
X146916890Y-59158346D01*
X146732339Y-59029122D01*
X146732336Y-59029120D01*
X146727830Y-59025965D01*
X146722848Y-59023642D01*
X146722843Y-59023639D01*
X146518645Y-58928420D01*
X146518644Y-58928419D01*
X146513663Y-58926097D01*
X146508355Y-58924675D01*
X146508353Y-58924674D01*
X146290723Y-58866361D01*
X146290722Y-58866361D01*
X146285408Y-58864937D01*
X146050000Y-58844341D01*
X145814592Y-58864937D01*
X145809278Y-58866361D01*
X145809277Y-58866361D01*
X145591647Y-58924674D01*
X145591645Y-58924675D01*
X145586337Y-58926097D01*
X145581357Y-58928419D01*
X145581355Y-58928420D01*
X145377152Y-59023642D01*
X145377149Y-59023644D01*
X145372171Y-59025965D01*
X145178599Y-59161505D01*
X145011505Y-59328599D01*
X144998812Y-59346727D01*
X144883213Y-59511820D01*
X144827756Y-59556149D01*
X144757137Y-59563458D01*
X144693776Y-59531428D01*
X144676787Y-59511820D01*
X144561188Y-59346727D01*
X144548495Y-59328599D01*
X144381401Y-59161505D01*
X144376893Y-59158348D01*
X144376890Y-59158346D01*
X144192339Y-59029122D01*
X144192336Y-59029120D01*
X144187830Y-59025965D01*
X144182848Y-59023642D01*
X144182843Y-59023639D01*
X143978645Y-58928420D01*
X143978644Y-58928419D01*
X143973663Y-58926097D01*
X143968355Y-58924675D01*
X143968353Y-58924674D01*
X143750723Y-58866361D01*
X143750722Y-58866361D01*
X143745408Y-58864937D01*
X143510000Y-58844341D01*
X143274592Y-58864937D01*
X143269278Y-58866361D01*
X143269277Y-58866361D01*
X143051647Y-58924674D01*
X143051645Y-58924675D01*
X143046337Y-58926097D01*
X143041357Y-58928419D01*
X143041355Y-58928420D01*
X142837152Y-59023642D01*
X142837149Y-59023644D01*
X142832171Y-59025965D01*
X142638599Y-59161505D01*
X142471505Y-59328599D01*
X142458812Y-59346727D01*
X142343213Y-59511820D01*
X142287756Y-59556149D01*
X142217137Y-59563458D01*
X142153776Y-59531428D01*
X142136787Y-59511820D01*
X142021188Y-59346727D01*
X142008495Y-59328599D01*
X141841401Y-59161505D01*
X141836893Y-59158348D01*
X141836890Y-59158346D01*
X141652339Y-59029122D01*
X141652336Y-59029120D01*
X141647830Y-59025965D01*
X141642848Y-59023642D01*
X141642843Y-59023639D01*
X141438645Y-58928420D01*
X141438644Y-58928419D01*
X141433663Y-58926097D01*
X141428355Y-58924675D01*
X141428353Y-58924674D01*
X141210723Y-58866361D01*
X141210722Y-58866361D01*
X141205408Y-58864937D01*
X140970000Y-58844341D01*
X140734592Y-58864937D01*
X140729278Y-58866361D01*
X140729277Y-58866361D01*
X140511647Y-58924674D01*
X140511645Y-58924675D01*
X140506337Y-58926097D01*
X140501357Y-58928419D01*
X140501355Y-58928420D01*
X140297152Y-59023642D01*
X140297149Y-59023644D01*
X140292171Y-59025965D01*
X140098599Y-59161505D01*
X139978989Y-59281115D01*
X139916677Y-59315141D01*
X139845862Y-59310076D01*
X139789026Y-59267529D01*
X139771912Y-59236248D01*
X139726677Y-59115581D01*
X139726676Y-59115580D01*
X139723526Y-59107176D01*
X139718146Y-59099997D01*
X139718144Y-59099994D01*
X139642928Y-58999635D01*
X139637546Y-58992454D01*
X139570509Y-58942212D01*
X139530006Y-58911856D01*
X139530003Y-58911854D01*
X139522824Y-58906474D01*
X139415821Y-58866361D01*
X139395975Y-58858921D01*
X139395973Y-58858921D01*
X139388580Y-58856149D01*
X139380730Y-58855296D01*
X139380729Y-58855296D01*
X139330774Y-58849869D01*
X139330773Y-58849869D01*
X139327377Y-58849500D01*
X138430132Y-58849500D01*
X137532624Y-58849501D01*
X137529230Y-58849870D01*
X137529224Y-58849870D01*
X137479278Y-58855295D01*
X137479274Y-58855296D01*
X137471420Y-58856149D01*
X137337176Y-58906474D01*
X137329997Y-58911854D01*
X137329994Y-58911856D01*
X137289491Y-58942212D01*
X137222454Y-58992454D01*
X137217072Y-58999635D01*
X137141856Y-59099994D01*
X137141854Y-59099997D01*
X137136474Y-59107176D01*
X137086149Y-59241420D01*
X137085296Y-59249270D01*
X137085296Y-59249271D01*
X137081837Y-59281115D01*
X137079500Y-59302623D01*
X134620000Y-59302623D01*
X134620000Y-51172623D01*
X145969500Y-51172623D01*
X145969501Y-52967376D01*
X145969870Y-52970770D01*
X145969870Y-52970776D01*
X145972684Y-52996676D01*
X145976149Y-53028580D01*
X146026474Y-53162824D01*
X146031854Y-53170003D01*
X146031856Y-53170006D01*
X146089082Y-53246361D01*
X146112454Y-53277546D01*
X146119635Y-53282928D01*
X146219994Y-53358144D01*
X146219997Y-53358146D01*
X146227176Y-53363526D01*
X146316561Y-53397034D01*
X146354025Y-53411079D01*
X146354027Y-53411079D01*
X146361420Y-53413851D01*
X146369270Y-53414704D01*
X146369271Y-53414704D01*
X146419217Y-53420130D01*
X146422623Y-53420500D01*
X147319868Y-53420500D01*
X148217376Y-53420499D01*
X148220770Y-53420130D01*
X148220776Y-53420130D01*
X148270722Y-53414705D01*
X148270726Y-53414704D01*
X148278580Y-53413851D01*
X148412824Y-53363526D01*
X148420003Y-53358146D01*
X148420006Y-53358144D01*
X148520365Y-53282928D01*
X148527546Y-53277546D01*
X148550918Y-53246361D01*
X148608144Y-53170006D01*
X148608146Y-53170003D01*
X148613526Y-53162824D01*
X148655772Y-53050131D01*
X148658834Y-53041964D01*
X148701475Y-52985199D01*
X148768037Y-52960499D01*
X148837386Y-52975706D01*
X148872053Y-53003695D01*
X148903218Y-53039673D01*
X148910580Y-53046883D01*
X149074434Y-53182916D01*
X149082881Y-53188831D01*
X149266756Y-53296279D01*
X149276042Y-53300729D01*
X149475001Y-53376703D01*
X149484899Y-53379579D01*
X149588250Y-53400606D01*
X149602299Y-53399410D01*
X149606000Y-53389065D01*
X149606000Y-53388517D01*
X150114000Y-53388517D01*
X150118064Y-53402359D01*
X150131478Y-53404393D01*
X150138184Y-53403534D01*
X150148262Y-53401392D01*
X150352255Y-53340191D01*
X150361842Y-53336433D01*
X150553095Y-53242739D01*
X150561945Y-53237464D01*
X150735328Y-53113792D01*
X150743200Y-53107139D01*
X150894052Y-52956812D01*
X150900730Y-52948965D01*
X151025002Y-52776022D01*
X151027003Y-52772692D01*
X151079237Y-52724606D01*
X151149175Y-52712394D01*
X151214613Y-52739931D01*
X151238215Y-52765324D01*
X151361505Y-52941401D01*
X151528599Y-53108495D01*
X151533107Y-53111652D01*
X151533110Y-53111654D01*
X151717661Y-53240878D01*
X151722170Y-53244035D01*
X151727152Y-53246358D01*
X151727157Y-53246361D01*
X151931355Y-53341580D01*
X151936337Y-53343903D01*
X151941645Y-53345325D01*
X151941647Y-53345326D01*
X152159277Y-53403639D01*
X152164592Y-53405063D01*
X152400000Y-53425659D01*
X152635408Y-53405063D01*
X152640723Y-53403639D01*
X152858353Y-53345326D01*
X152858355Y-53345325D01*
X152863663Y-53343903D01*
X152868645Y-53341580D01*
X153072843Y-53246361D01*
X153072848Y-53246358D01*
X153077830Y-53244035D01*
X153082339Y-53240878D01*
X153266890Y-53111654D01*
X153266893Y-53111652D01*
X153271401Y-53108495D01*
X153438495Y-52941401D01*
X153566787Y-52758180D01*
X153622244Y-52713851D01*
X153692863Y-52706542D01*
X153756224Y-52738572D01*
X153773212Y-52758179D01*
X153901505Y-52941401D01*
X154068599Y-53108495D01*
X154073107Y-53111652D01*
X154073110Y-53111654D01*
X154257661Y-53240878D01*
X154262170Y-53244035D01*
X154267152Y-53246358D01*
X154267157Y-53246361D01*
X154471355Y-53341580D01*
X154476337Y-53343903D01*
X154481645Y-53345325D01*
X154481647Y-53345326D01*
X154699277Y-53403639D01*
X154704592Y-53405063D01*
X154940000Y-53425659D01*
X155175408Y-53405063D01*
X155180723Y-53403639D01*
X155398353Y-53345326D01*
X155398355Y-53345325D01*
X155403663Y-53343903D01*
X155408645Y-53341580D01*
X155612843Y-53246361D01*
X155612848Y-53246358D01*
X155617830Y-53244035D01*
X155622339Y-53240878D01*
X155806890Y-53111654D01*
X155806893Y-53111652D01*
X155811401Y-53108495D01*
X155978495Y-52941401D01*
X156114035Y-52747829D01*
X156129880Y-52713851D01*
X156211580Y-52538645D01*
X156211581Y-52538643D01*
X156213903Y-52533663D01*
X156275063Y-52305408D01*
X156295659Y-52070000D01*
X156275063Y-51834592D01*
X156213903Y-51606337D01*
X156131351Y-51429304D01*
X156116358Y-51397152D01*
X156116356Y-51397149D01*
X156114035Y-51392171D01*
X155978495Y-51198599D01*
X155811401Y-51031505D01*
X155806893Y-51028348D01*
X155806890Y-51028346D01*
X155622339Y-50899122D01*
X155622336Y-50899120D01*
X155617830Y-50895965D01*
X155612848Y-50893642D01*
X155612843Y-50893639D01*
X155408645Y-50798420D01*
X155408644Y-50798419D01*
X155403663Y-50796097D01*
X155398355Y-50794675D01*
X155398353Y-50794674D01*
X155180723Y-50736361D01*
X155180722Y-50736361D01*
X155175408Y-50734937D01*
X154940000Y-50714341D01*
X154704592Y-50734937D01*
X154699278Y-50736361D01*
X154699277Y-50736361D01*
X154481647Y-50794674D01*
X154481645Y-50794675D01*
X154476337Y-50796097D01*
X154471357Y-50798419D01*
X154471355Y-50798420D01*
X154267152Y-50893642D01*
X154267149Y-50893644D01*
X154262171Y-50895965D01*
X154068599Y-51031505D01*
X153901505Y-51198599D01*
X153898346Y-51203111D01*
X153773213Y-51381820D01*
X153717756Y-51426149D01*
X153647137Y-51433458D01*
X153583776Y-51401428D01*
X153566787Y-51381820D01*
X153441654Y-51203111D01*
X153438495Y-51198599D01*
X153271401Y-51031505D01*
X153266893Y-51028348D01*
X153266890Y-51028346D01*
X153082339Y-50899122D01*
X153082336Y-50899120D01*
X153077830Y-50895965D01*
X153072848Y-50893642D01*
X153072843Y-50893639D01*
X152868645Y-50798420D01*
X152868644Y-50798419D01*
X152863663Y-50796097D01*
X152858355Y-50794675D01*
X152858353Y-50794674D01*
X152640723Y-50736361D01*
X152640722Y-50736361D01*
X152635408Y-50734937D01*
X152400000Y-50714341D01*
X152164592Y-50734937D01*
X152159278Y-50736361D01*
X152159277Y-50736361D01*
X151941647Y-50794674D01*
X151941645Y-50794675D01*
X151936337Y-50796097D01*
X151931357Y-50798419D01*
X151931355Y-50798420D01*
X151727152Y-50893642D01*
X151727149Y-50893644D01*
X151722171Y-50895965D01*
X151528599Y-51031505D01*
X151361505Y-51198599D01*
X151238803Y-51373836D01*
X151236121Y-51377667D01*
X151180664Y-51421995D01*
X151110045Y-51429304D01*
X151046684Y-51397273D01*
X151027116Y-51373836D01*
X150942427Y-51242926D01*
X150936136Y-51234757D01*
X150792806Y-51077240D01*
X150785273Y-51070215D01*
X150618139Y-50938222D01*
X150609552Y-50932517D01*
X150423117Y-50829599D01*
X150413705Y-50825369D01*
X150212959Y-50754280D01*
X150202988Y-50751646D01*
X150131837Y-50738972D01*
X150118540Y-50740432D01*
X150114000Y-50754989D01*
X150114000Y-53388517D01*
X149606000Y-53388517D01*
X149606000Y-50753102D01*
X149602082Y-50739758D01*
X149587806Y-50737771D01*
X149549324Y-50743660D01*
X149539288Y-50746051D01*
X149336868Y-50812212D01*
X149327359Y-50816209D01*
X149138463Y-50914542D01*
X149129738Y-50920036D01*
X148959433Y-51047905D01*
X148951726Y-51054748D01*
X148868340Y-51142006D01*
X148806815Y-51177436D01*
X148735903Y-51173979D01*
X148678117Y-51132733D01*
X148659264Y-51099184D01*
X148616676Y-50985579D01*
X148613526Y-50977176D01*
X148608146Y-50969997D01*
X148608144Y-50969994D01*
X148532928Y-50869635D01*
X148527546Y-50862454D01*
X148460509Y-50812212D01*
X148420006Y-50781856D01*
X148420003Y-50781854D01*
X148412824Y-50776474D01*
X148323439Y-50742966D01*
X148285975Y-50728921D01*
X148285973Y-50728921D01*
X148278580Y-50726149D01*
X148270730Y-50725296D01*
X148270729Y-50725296D01*
X148220774Y-50719869D01*
X148220773Y-50719869D01*
X148217377Y-50719500D01*
X147320132Y-50719500D01*
X146422624Y-50719501D01*
X146419230Y-50719870D01*
X146419224Y-50719870D01*
X146369278Y-50725295D01*
X146369274Y-50725296D01*
X146361420Y-50726149D01*
X146227176Y-50776474D01*
X146219997Y-50781854D01*
X146219994Y-50781856D01*
X146179491Y-50812212D01*
X146112454Y-50862454D01*
X146107072Y-50869635D01*
X146031856Y-50969994D01*
X146031854Y-50969997D01*
X146026474Y-50977176D01*
X145976149Y-51111420D01*
X145969500Y-51172623D01*
X134620000Y-51172623D01*
X134620000Y-48312190D01*
X134640002Y-48244069D01*
X134656905Y-48223095D01*
X135284815Y-47595185D01*
X135347127Y-47561159D01*
X135417942Y-47566224D01*
X135474778Y-47608771D01*
X135499589Y-47675291D01*
X135493912Y-47722693D01*
X135453094Y-47850208D01*
X135411272Y-48107006D01*
X135407866Y-48367165D01*
X135442952Y-48624970D01*
X135515758Y-48874757D01*
X135624686Y-49111039D01*
X135627246Y-49114944D01*
X135627249Y-49114949D01*
X135764775Y-49324712D01*
X135764779Y-49324717D01*
X135767341Y-49328625D01*
X135940591Y-49522735D01*
X136140629Y-49689105D01*
X136363061Y-49824080D01*
X136367375Y-49825889D01*
X136367377Y-49825890D01*
X136598686Y-49922886D01*
X136598691Y-49922888D01*
X136603001Y-49924695D01*
X136607533Y-49925846D01*
X136607536Y-49925847D01*
X136732815Y-49957663D01*
X136855177Y-49988739D01*
X137071286Y-50010500D01*
X137226044Y-50010500D01*
X137228369Y-50010327D01*
X137228375Y-50010327D01*
X137414814Y-49996472D01*
X137414818Y-49996471D01*
X137419466Y-49996126D01*
X137673232Y-49938705D01*
X137677586Y-49937012D01*
X137911370Y-49846098D01*
X137911372Y-49846097D01*
X137915723Y-49844405D01*
X137951285Y-49824080D01*
X137999038Y-49796786D01*
X138141612Y-49715299D01*
X138345936Y-49554223D01*
X138524208Y-49364714D01*
X138672511Y-49150937D01*
X138690258Y-49114949D01*
X138745651Y-49002623D01*
X176819500Y-49002623D01*
X176819501Y-52597376D01*
X176826149Y-52658580D01*
X176876474Y-52792824D01*
X176881854Y-52800003D01*
X176881856Y-52800006D01*
X176957072Y-52900365D01*
X176962454Y-52907546D01*
X176969635Y-52912928D01*
X177069994Y-52988144D01*
X177069997Y-52988146D01*
X177077176Y-52993526D01*
X177166561Y-53027034D01*
X177204025Y-53041079D01*
X177204027Y-53041079D01*
X177211420Y-53043851D01*
X177219270Y-53044704D01*
X177219271Y-53044704D01*
X177269217Y-53050130D01*
X177272623Y-53050500D01*
X179069737Y-53050500D01*
X180867376Y-53050499D01*
X180870770Y-53050130D01*
X180870776Y-53050130D01*
X180920722Y-53044705D01*
X180920726Y-53044704D01*
X180928580Y-53043851D01*
X181062824Y-52993526D01*
X181070003Y-52988146D01*
X181070006Y-52988144D01*
X181170365Y-52912928D01*
X181177546Y-52907546D01*
X181182928Y-52900365D01*
X181258144Y-52800006D01*
X181258146Y-52800003D01*
X181263526Y-52792824D01*
X181313851Y-52658580D01*
X181320500Y-52597377D01*
X181320499Y-49002624D01*
X181313851Y-48941420D01*
X181263526Y-48807176D01*
X181258146Y-48799997D01*
X181258144Y-48799994D01*
X181182928Y-48699635D01*
X181177546Y-48692454D01*
X181170365Y-48687072D01*
X181070006Y-48611856D01*
X181070003Y-48611854D01*
X181062824Y-48606474D01*
X180973439Y-48572966D01*
X180935975Y-48558921D01*
X180935973Y-48558921D01*
X180928580Y-48556149D01*
X180920730Y-48555296D01*
X180920729Y-48555296D01*
X180870774Y-48549869D01*
X180870773Y-48549869D01*
X180867377Y-48549500D01*
X179070263Y-48549500D01*
X177272624Y-48549501D01*
X177269230Y-48549870D01*
X177269224Y-48549870D01*
X177219278Y-48555295D01*
X177219274Y-48555296D01*
X177211420Y-48556149D01*
X177077176Y-48606474D01*
X177069997Y-48611854D01*
X177069994Y-48611856D01*
X176969635Y-48687072D01*
X176962454Y-48692454D01*
X176957072Y-48699635D01*
X176881856Y-48799994D01*
X176881854Y-48799997D01*
X176876474Y-48807176D01*
X176826149Y-48941420D01*
X176819500Y-49002623D01*
X138745651Y-49002623D01*
X138785521Y-48921775D01*
X138785522Y-48921772D01*
X138787586Y-48917587D01*
X138866906Y-48669792D01*
X138908728Y-48412994D01*
X138909328Y-48367165D01*
X200177866Y-48367165D01*
X200212952Y-48624970D01*
X200285758Y-48874757D01*
X200394686Y-49111039D01*
X200397246Y-49114944D01*
X200397249Y-49114949D01*
X200534775Y-49324712D01*
X200534779Y-49324717D01*
X200537341Y-49328625D01*
X200710591Y-49522735D01*
X200910629Y-49689105D01*
X201133061Y-49824080D01*
X201137375Y-49825889D01*
X201137377Y-49825890D01*
X201368686Y-49922886D01*
X201368691Y-49922888D01*
X201373001Y-49924695D01*
X201377533Y-49925846D01*
X201377536Y-49925847D01*
X201502815Y-49957663D01*
X201625177Y-49988739D01*
X201841286Y-50010500D01*
X201996044Y-50010500D01*
X201998369Y-50010327D01*
X201998375Y-50010327D01*
X202184814Y-49996472D01*
X202184818Y-49996471D01*
X202189466Y-49996126D01*
X202443232Y-49938705D01*
X202447586Y-49937012D01*
X202681370Y-49846098D01*
X202681372Y-49846097D01*
X202685723Y-49844405D01*
X202721285Y-49824080D01*
X202769038Y-49796786D01*
X202911612Y-49715299D01*
X203115936Y-49554223D01*
X203294208Y-49364714D01*
X203442511Y-49150937D01*
X203460258Y-49114949D01*
X203555521Y-48921775D01*
X203555522Y-48921772D01*
X203557586Y-48917587D01*
X203636906Y-48669792D01*
X203678728Y-48412994D01*
X203682134Y-48152835D01*
X203647048Y-47895030D01*
X203574242Y-47645243D01*
X203465314Y-47408961D01*
X203462751Y-47405051D01*
X203325225Y-47195288D01*
X203325221Y-47195283D01*
X203322659Y-47191375D01*
X203189506Y-47042190D01*
X203152526Y-47000757D01*
X203152524Y-47000755D01*
X203149409Y-46997265D01*
X202949371Y-46830895D01*
X202726939Y-46695920D01*
X202722623Y-46694110D01*
X202491314Y-46597114D01*
X202491309Y-46597112D01*
X202486999Y-46595305D01*
X202482467Y-46594154D01*
X202482464Y-46594153D01*
X202342062Y-46558496D01*
X202234823Y-46531261D01*
X202018714Y-46509500D01*
X201863956Y-46509500D01*
X201861631Y-46509673D01*
X201861625Y-46509673D01*
X201675186Y-46523528D01*
X201675182Y-46523529D01*
X201670534Y-46523874D01*
X201416768Y-46581295D01*
X201412416Y-46582987D01*
X201412414Y-46582988D01*
X201178630Y-46673902D01*
X201178628Y-46673903D01*
X201174277Y-46675595D01*
X201170223Y-46677912D01*
X201170221Y-46677913D01*
X201134467Y-46698348D01*
X200948388Y-46804701D01*
X200744064Y-46965777D01*
X200565792Y-47155286D01*
X200417489Y-47369063D01*
X200415423Y-47373253D01*
X200415421Y-47373256D01*
X200379356Y-47446390D01*
X200302414Y-47602413D01*
X200300992Y-47606856D01*
X200300991Y-47606858D01*
X200263912Y-47722693D01*
X200223094Y-47850208D01*
X200181272Y-48107006D01*
X200177866Y-48367165D01*
X138909328Y-48367165D01*
X138912134Y-48152835D01*
X138877048Y-47895030D01*
X138804242Y-47645243D01*
X138695314Y-47408961D01*
X138692751Y-47405051D01*
X138555225Y-47195288D01*
X138555221Y-47195283D01*
X138552659Y-47191375D01*
X138419506Y-47042190D01*
X138382526Y-47000757D01*
X138382524Y-47000755D01*
X138379409Y-46997265D01*
X138179371Y-46830895D01*
X137956939Y-46695920D01*
X137952623Y-46694110D01*
X137721314Y-46597114D01*
X137721309Y-46597112D01*
X137716999Y-46595305D01*
X137712467Y-46594154D01*
X137712464Y-46594153D01*
X137572062Y-46558496D01*
X137464823Y-46531261D01*
X137248714Y-46509500D01*
X137093956Y-46509500D01*
X137091631Y-46509673D01*
X137091625Y-46509673D01*
X136905186Y-46523528D01*
X136905182Y-46523529D01*
X136900534Y-46523874D01*
X136646768Y-46581295D01*
X136635685Y-46585605D01*
X136564947Y-46591653D01*
X136502168Y-46558496D01*
X136467281Y-46496662D01*
X136471362Y-46425783D01*
X136500923Y-46379077D01*
X137123095Y-45756905D01*
X137185407Y-45722879D01*
X137212190Y-45720000D01*
X203147810Y-45720000D01*
X203215931Y-45740002D01*
G37*
%TD.AperFunction*%
%TA.AperFunction,Conductor*%
G36*
X166126841Y-57795502D02*
G01*
X166147815Y-57812405D01*
X174762756Y-66427346D01*
X174770146Y-66435467D01*
X174774214Y-66441877D01*
X174779993Y-66447304D01*
X174823224Y-66487901D01*
X174826066Y-66490656D01*
X174845530Y-66510120D01*
X174848660Y-66512548D01*
X174848762Y-66512638D01*
X174857644Y-66520225D01*
X174889418Y-66550062D01*
X174906837Y-66559638D01*
X174923361Y-66570493D01*
X174939064Y-66582674D01*
X174979080Y-66599991D01*
X174989725Y-66605206D01*
X175020957Y-66622376D01*
X175020959Y-66622377D01*
X175027908Y-66626197D01*
X175047159Y-66631140D01*
X175065863Y-66637544D01*
X175084105Y-66645438D01*
X175127148Y-66652255D01*
X175138770Y-66654663D01*
X175173296Y-66663528D01*
X175173305Y-66663529D01*
X175180981Y-66665500D01*
X175200856Y-66665500D01*
X175220566Y-66667051D01*
X175240196Y-66670160D01*
X175248088Y-66669414D01*
X175283579Y-66666059D01*
X175295437Y-66665500D01*
X196843733Y-66665500D01*
X196911854Y-66685502D01*
X196946946Y-66719230D01*
X197081505Y-66911401D01*
X197248599Y-67078495D01*
X197253107Y-67081652D01*
X197253110Y-67081654D01*
X197431820Y-67206788D01*
X197476148Y-67262245D01*
X197483457Y-67332865D01*
X197451426Y-67396225D01*
X197431822Y-67413211D01*
X197248599Y-67541505D01*
X197081505Y-67708599D01*
X197078346Y-67713111D01*
X196946946Y-67900770D01*
X196891489Y-67945099D01*
X196843733Y-67954500D01*
X167951281Y-67954500D01*
X167883160Y-67934498D01*
X167862186Y-67917595D01*
X161952405Y-62007814D01*
X161918379Y-61945502D01*
X161915500Y-61918719D01*
X161915500Y-61476268D01*
X161935502Y-61408147D01*
X161969228Y-61373056D01*
X162083811Y-61292824D01*
X162156890Y-61241654D01*
X162156893Y-61241652D01*
X162161401Y-61238495D01*
X162328495Y-61071401D01*
X162454358Y-60891649D01*
X162509814Y-60847322D01*
X162580433Y-60840013D01*
X162643794Y-60872043D01*
X162665003Y-60898086D01*
X162727694Y-61000388D01*
X162733777Y-61008699D01*
X162873213Y-61169667D01*
X162880580Y-61176883D01*
X163044434Y-61312916D01*
X163052881Y-61318831D01*
X163236756Y-61426279D01*
X163246042Y-61430729D01*
X163445001Y-61506703D01*
X163454899Y-61509579D01*
X163562250Y-61531420D01*
X163576299Y-61530224D01*
X163580000Y-61519879D01*
X163580000Y-61519029D01*
X164080000Y-61519029D01*
X164084064Y-61532871D01*
X164097479Y-61534905D01*
X164108188Y-61533533D01*
X164118258Y-61531393D01*
X164322255Y-61470191D01*
X164331842Y-61466433D01*
X164523095Y-61372739D01*
X164531945Y-61367464D01*
X164705328Y-61243792D01*
X164713200Y-61237139D01*
X164864052Y-61086812D01*
X164870730Y-61078965D01*
X164995003Y-60906020D01*
X165000313Y-60897183D01*
X165094670Y-60706267D01*
X165098469Y-60696672D01*
X165160375Y-60492917D01*
X165162555Y-60482833D01*
X165164514Y-60467960D01*
X165162302Y-60453778D01*
X165149145Y-60450000D01*
X164098115Y-60450000D01*
X164082876Y-60454475D01*
X164081671Y-60455865D01*
X164080000Y-60463548D01*
X164080000Y-61519029D01*
X163580000Y-61519029D01*
X163580000Y-59931885D01*
X164080000Y-59931885D01*
X164084475Y-59947124D01*
X164085865Y-59948329D01*
X164093548Y-59950000D01*
X165149349Y-59950000D01*
X165162880Y-59946027D01*
X165164185Y-59936947D01*
X165121214Y-59765875D01*
X165117894Y-59756124D01*
X165032972Y-59560814D01*
X165028105Y-59551739D01*
X164912426Y-59372926D01*
X164906136Y-59364757D01*
X164762806Y-59207240D01*
X164755273Y-59200215D01*
X164588139Y-59068222D01*
X164579552Y-59062517D01*
X164393117Y-58959599D01*
X164383705Y-58955369D01*
X164182959Y-58884280D01*
X164172989Y-58881646D01*
X164097837Y-58868260D01*
X164084540Y-58869720D01*
X164080000Y-58884275D01*
X164080000Y-59931885D01*
X163580000Y-59931885D01*
X163580000Y-58882490D01*
X163576082Y-58869146D01*
X163561806Y-58867159D01*
X163519324Y-58873660D01*
X163509288Y-58876051D01*
X163306868Y-58942212D01*
X163297359Y-58946209D01*
X163108463Y-59044542D01*
X163099738Y-59050036D01*
X162929433Y-59177905D01*
X162921726Y-59184748D01*
X162774590Y-59338717D01*
X162768104Y-59346727D01*
X162660168Y-59504955D01*
X162605257Y-59549958D01*
X162534732Y-59558129D01*
X162470985Y-59526875D01*
X162452867Y-59506222D01*
X162451980Y-59504955D01*
X162328495Y-59328599D01*
X162161401Y-59161505D01*
X162156893Y-59158348D01*
X162156890Y-59158346D01*
X161972339Y-59029122D01*
X161972336Y-59029120D01*
X161967830Y-59025965D01*
X161962848Y-59023642D01*
X161962843Y-59023639D01*
X161758645Y-58928420D01*
X161758644Y-58928419D01*
X161753663Y-58926097D01*
X161748355Y-58924675D01*
X161748353Y-58924674D01*
X161530723Y-58866361D01*
X161530722Y-58866361D01*
X161525408Y-58864937D01*
X161293318Y-58844631D01*
X161293317Y-58844631D01*
X161290000Y-58844341D01*
X161290058Y-58843674D01*
X161225839Y-58824818D01*
X161179346Y-58771162D01*
X161169242Y-58700888D01*
X161198736Y-58636308D01*
X161204848Y-58629742D01*
X162022188Y-57812403D01*
X162084498Y-57778379D01*
X162111281Y-57775500D01*
X166058720Y-57775500D01*
X166126841Y-57795502D01*
G37*
%TD.AperFunction*%
%TD*%
M02*
